<svg width="78" height="131" viewBox="0 0 78 131" fill="none" xmlns="http://www.w3.org/2000/svg">
<path d="M28.7266 93.3359V97.5C28.5859 97.7083 28.362 97.9427 28.0547 98.2031C27.7474 98.4583 27.3229 98.6823 26.7812 98.875C26.2448 99.0625 25.5521 99.1562 24.7031 99.1562C24.0104 99.1562 23.3724 99.0365 22.7891 98.7969C22.2109 98.5521 21.7083 98.1979 21.2812 97.7344C20.8594 97.2656 20.5312 96.6979 20.2969 96.0312C20.0677 95.3594 19.9531 94.599 19.9531 93.75V92.8672C19.9531 92.0182 20.0521 91.2604 20.25 90.5938C20.4531 89.9271 20.75 89.362 21.1406 88.8984C21.5312 88.4297 22.0104 88.0755 22.5781 87.8359C23.1458 87.5911 23.7969 87.4688 24.5312 87.4688C25.401 87.4688 26.1276 87.6198 26.7109 87.9219C27.2995 88.2188 27.7578 88.6302 28.0859 89.1562C28.4193 89.6823 28.6328 90.2812 28.7266 90.9531H27.2188C27.151 90.5417 27.0156 90.1667 26.8125 89.8281C26.6146 89.4896 26.3307 89.2188 25.9609 89.0156C25.5911 88.8073 25.1146 88.7031 24.5312 88.7031C24.0052 88.7031 23.5495 88.7995 23.1641 88.9922C22.7786 89.1849 22.4609 89.4609 22.2109 89.8203C21.9609 90.1797 21.7734 90.6146 21.6484 91.125C21.5286 91.6354 21.4688 92.2109 21.4688 92.8516V93.75C21.4688 94.4062 21.5443 94.9922 21.6953 95.5078C21.8516 96.0234 22.0729 96.4635 22.3594 96.8281C22.6458 97.1875 22.987 97.4609 23.3828 97.6484C23.7839 97.8359 24.2266 97.9297 24.7109 97.9297C25.2474 97.9297 25.6823 97.8854 26.0156 97.7969C26.349 97.7031 26.6094 97.5938 26.7969 97.4688C26.9844 97.3385 27.1276 97.2161 27.2266 97.1016V94.5547H24.5938V93.3359H28.7266ZM32.5781 90.5469V99H31.125V90.5469H32.5781ZM31.0156 88.3047C31.0156 88.0703 31.0859 87.8724 31.2266 87.7109C31.3724 87.5495 31.5859 87.4688 31.8672 87.4688C32.1432 87.4688 32.3542 87.5495 32.5 87.7109C32.651 87.8724 32.7266 88.0703 32.7266 88.3047C32.7266 88.5286 32.651 88.7214 32.5 88.8828C32.3542 89.0391 32.1432 89.1172 31.8672 89.1172C31.5859 89.1172 31.3724 89.0391 31.2266 88.8828C31.0859 88.7214 31.0156 88.5286 31.0156 88.3047ZM38.4375 90.5469V91.6562H33.8672V90.5469H38.4375ZM35.4141 88.4922H36.8594V96.9062C36.8594 97.1927 36.9036 97.4089 36.9922 97.5547C37.0807 97.7005 37.1953 97.7969 37.3359 97.8438C37.4766 97.8906 37.6276 97.9141 37.7891 97.9141C37.9089 97.9141 38.0339 97.9036 38.1641 97.8828C38.2995 97.8568 38.401 97.8359 38.4688 97.8203L38.4766 99C38.362 99.0365 38.2109 99.0703 38.0234 99.1016C37.8411 99.138 37.6198 99.1562 37.3594 99.1562C37.0052 99.1562 36.6797 99.0859 36.3828 98.9453C36.0859 98.8047 35.849 98.5703 35.6719 98.2422C35.5 97.9089 35.4141 97.4609 35.4141 96.8984V88.4922Z" fill="black"/>
<path fill-rule="evenodd" clip-rule="evenodd" d="M13.7359 93.3763L7.62333 87.2641C7.27156 86.912 6.70059 86.912 6.34837 87.2641L5.07908 88.5334L6.68923 90.1435C7.06342 90.0171 7.49246 90.1019 7.79077 90.4002C8.09046 90.7004 8.17464 91.1331 8.04515 91.5085L9.59692 93.0603C9.97234 92.931 10.4055 93.0147 10.7054 93.315C11.1244 93.7339 11.1244 94.4129 10.7054 94.8321C10.2862 95.2513 9.60721 95.2513 9.18785 94.8321C8.87264 94.5166 8.79476 94.0536 8.95436 93.6653L7.5072 92.2181L7.50705 96.0265C7.6092 96.0772 7.70567 96.1446 7.79077 96.2294C8.20982 96.6483 8.20982 97.3273 7.79077 97.7468C7.37156 98.1658 6.6923 98.1658 6.27371 97.7468C5.85466 97.3273 5.85466 96.6483 6.27371 96.2294C6.37724 96.126 6.49706 96.0478 6.62486 95.9953V92.1514C6.49706 92.0992 6.3774 92.0215 6.27371 91.9173C5.9562 91.6003 5.87986 91.1343 6.04253 90.7445L4.45543 89.157L0.264171 93.3481C-0.0880571 93.7005 -0.0880571 94.2714 0.264171 94.6235L6.37678 100.736C6.7287 101.088 7.29952 101.088 7.6519 100.736L13.7359 94.6519C14.088 94.2997 14.088 93.7284 13.7359 93.3763Z" fill="#DE4C36"/>
<path d="M29.0703 58.625V70H27.5547L21.8281 61.2266V70H20.3203V58.625H21.8281L27.5781 67.4219V58.625H29.0703ZM35.9375 65.5391H32.8984V64.3125H35.9375C36.526 64.3125 37.0026 64.2188 37.3672 64.0312C37.7318 63.8438 37.9974 63.5833 38.1641 63.25C38.3359 62.9167 38.4219 62.5365 38.4219 62.1094C38.4219 61.7188 38.3359 61.3516 38.1641 61.0078C37.9974 60.6641 37.7318 60.388 37.3672 60.1797C37.0026 59.9661 36.526 59.8594 35.9375 59.8594H33.25V70H31.7422V58.625H35.9375C36.7969 58.625 37.5234 58.7734 38.1172 59.0703C38.7109 59.3672 39.1615 59.7786 39.4688 60.3047C39.776 60.8255 39.9297 61.4219 39.9297 62.0938C39.9297 62.8229 39.776 63.4453 39.4688 63.9609C39.1615 64.4766 38.7109 64.8698 38.1172 65.1406C37.5234 65.4062 36.7969 65.5391 35.9375 65.5391ZM42.3125 58.625H43.7734L47.5 67.8984L51.2188 58.625H52.6875L48.0625 70H46.9219L42.3125 58.625ZM41.8359 58.625H43.125L43.3359 65.5625V70H41.8359V58.625ZM51.8672 58.625H53.1562V70H51.6562V65.5625L51.8672 58.625Z" fill="black"/>
<g clip-path="url(#clip0_0_614)">
<path d="M0 72V58H14V72H0Z" fill="#C12127"/>
<path d="M2.625 60.625H11.375V69.375H9.625V62.375H7V69.375H2.625V60.625Z" fill="white"/>
</g>
<path d="M21.8281 31.625V43H20.3203V31.625H21.8281ZM26.5938 36.7422V37.9766H21.5V36.7422H26.5938ZM27.3672 31.625V32.8594H21.5V31.625H27.3672ZM30.5156 34.5469V43H29.0625V34.5469H30.5156ZM28.9531 32.3047C28.9531 32.0703 29.0234 31.8724 29.1641 31.7109C29.3099 31.5495 29.5234 31.4688 29.8047 31.4688C30.0807 31.4688 30.2917 31.5495 30.4375 31.7109C30.5885 31.8724 30.6641 32.0703 30.6641 32.3047C30.6641 32.5286 30.5885 32.7214 30.4375 32.8828C30.2917 33.0391 30.0807 33.1172 29.8047 33.1172C29.5234 33.1172 29.3099 33.0391 29.1641 32.8828C29.0234 32.7214 28.9531 32.5286 28.9531 32.3047ZM38.3125 34.5469H39.625V42.8203C39.625 43.5651 39.474 44.2005 39.1719 44.7266C38.8698 45.2526 38.4479 45.651 37.9062 45.9219C37.3698 46.1979 36.75 46.3359 36.0469 46.3359C35.7552 46.3359 35.4115 46.2891 35.0156 46.1953C34.625 46.1068 34.2396 45.9531 33.8594 45.7344C33.4844 45.5208 33.1693 45.2318 32.9141 44.8672L33.6719 44.0078C34.026 44.4349 34.3958 44.7318 34.7812 44.8984C35.1719 45.0651 35.5573 45.1484 35.9375 45.1484C36.3958 45.1484 36.7917 45.0625 37.125 44.8906C37.4583 44.7188 37.7161 44.4635 37.8984 44.125C38.0859 43.7917 38.1797 43.3802 38.1797 42.8906V36.4062L38.3125 34.5469ZM32.4922 38.8672V38.7031C32.4922 38.0573 32.5677 37.4714 32.7188 36.9453C32.875 36.4141 33.0964 35.9583 33.3828 35.5781C33.6745 35.1979 34.026 34.9062 34.4375 34.7031C34.849 34.4948 35.3125 34.3906 35.8281 34.3906C36.3594 34.3906 36.8229 34.4844 37.2188 34.6719C37.6198 34.8542 37.9583 35.1224 38.2344 35.4766C38.5156 35.8255 38.737 36.2474 38.8984 36.7422C39.0599 37.237 39.1719 37.7969 39.2344 38.4219V39.1406C39.1771 39.7604 39.0651 40.3177 38.8984 40.8125C38.737 41.3073 38.5156 41.7292 38.2344 42.0781C37.9583 42.4271 37.6198 42.6953 37.2188 42.8828C36.8177 43.0651 36.349 43.1562 35.8125 43.1562C35.3073 43.1562 34.849 43.0495 34.4375 42.8359C34.0312 42.6224 33.6823 42.3229 33.3906 41.9375C33.099 41.5521 32.875 41.099 32.7188 40.5781C32.5677 40.0521 32.4922 39.4818 32.4922 38.8672ZM33.9375 38.7031V38.8672C33.9375 39.2891 33.9792 39.6849 34.0625 40.0547C34.151 40.4245 34.2839 40.75 34.4609 41.0312C34.6432 41.3125 34.875 41.5339 35.1562 41.6953C35.4375 41.8516 35.7734 41.9297 36.1641 41.9297C36.6432 41.9297 37.0391 41.8281 37.3516 41.625C37.6641 41.4219 37.9115 41.1536 38.0938 40.8203C38.2812 40.487 38.4271 40.125 38.5312 39.7344V37.8516C38.474 37.5651 38.3854 37.2891 38.2656 37.0234C38.151 36.7526 38 36.513 37.8125 36.3047C37.6302 36.0911 37.4036 35.9219 37.1328 35.7969C36.862 35.6719 36.5443 35.6094 36.1797 35.6094C35.7839 35.6094 35.4427 35.6927 35.1562 35.8594C34.875 36.0208 34.6432 36.2448 34.4609 36.5312C34.2839 36.8125 34.151 37.1406 34.0625 37.5156C33.9792 37.8854 33.9375 38.2812 33.9375 38.7031ZM43.2578 36.2266V43H41.8047V34.5469H43.1797L43.2578 36.2266ZM42.9609 38.4531L42.2891 38.4297C42.2943 37.8516 42.3698 37.3177 42.5156 36.8281C42.6615 36.3333 42.8776 35.9036 43.1641 35.5391C43.4505 35.1745 43.8073 34.8932 44.2344 34.6953C44.6615 34.4922 45.1562 34.3906 45.7188 34.3906C46.1146 34.3906 46.4792 34.4479 46.8125 34.5625C47.1458 34.6719 47.4349 34.8464 47.6797 35.0859C47.9245 35.3255 48.1146 35.6328 48.25 36.0078C48.3854 36.3828 48.4531 36.8359 48.4531 37.3672V43H47.0078V37.4375C47.0078 36.9948 46.9323 36.6406 46.7812 36.375C46.6354 36.1094 46.4271 35.9167 46.1562 35.7969C45.8854 35.6719 45.5677 35.6094 45.2031 35.6094C44.776 35.6094 44.4193 35.6849 44.1328 35.8359C43.8464 35.987 43.6172 36.1953 43.4453 36.4609C43.2734 36.7266 43.1484 37.0312 43.0703 37.375C42.9974 37.7135 42.9609 38.0729 42.9609 38.4531ZM48.4375 37.6562L47.4688 37.9531C47.474 37.4896 47.5495 37.0443 47.6953 36.6172C47.8464 36.1901 48.0625 35.8099 48.3438 35.4766C48.6302 35.1432 48.9818 34.8802 49.3984 34.6875C49.8151 34.4896 50.2917 34.3906 50.8281 34.3906C51.2812 34.3906 51.6823 34.4505 52.0312 34.5703C52.3854 34.6901 52.6823 34.875 52.9219 35.125C53.1667 35.3698 53.3516 35.6849 53.4766 36.0703C53.6016 36.4557 53.6641 36.9141 53.6641 37.4453V43H52.2109V37.4297C52.2109 36.9557 52.1354 36.5885 51.9844 36.3281C51.8385 36.0625 51.6302 35.8776 51.3594 35.7734C51.0938 35.6641 50.776 35.6094 50.4062 35.6094C50.0885 35.6094 49.8073 35.6641 49.5625 35.7734C49.3177 35.8828 49.112 36.0339 48.9453 36.2266C48.7786 36.4141 48.651 36.6302 48.5625 36.875C48.4792 37.1198 48.4375 37.3802 48.4375 37.6562ZM60.8359 41.5547V37.2031C60.8359 36.8698 60.7682 36.5807 60.6328 36.3359C60.5026 36.0859 60.3047 35.8932 60.0391 35.7578C59.7734 35.6224 59.4453 35.5547 59.0547 35.5547C58.6901 35.5547 58.3698 35.6172 58.0938 35.7422C57.8229 35.8672 57.6094 36.0312 57.4531 36.2344C57.3021 36.4375 57.2266 36.6562 57.2266 36.8906H55.7812C55.7812 36.5885 55.8594 36.2891 56.0156 35.9922C56.1719 35.6953 56.3958 35.4271 56.6875 35.1875C56.9844 34.9427 57.3385 34.75 57.75 34.6094C58.1667 34.4635 58.6302 34.3906 59.1406 34.3906C59.7552 34.3906 60.2969 34.4948 60.7656 34.7031C61.2396 34.9115 61.6094 35.2266 61.875 35.6484C62.1458 36.0651 62.2812 36.5885 62.2812 37.2188V41.1562C62.2812 41.4375 62.3047 41.737 62.3516 42.0547C62.4036 42.3724 62.4792 42.6458 62.5781 42.875V43H61.0703C60.9974 42.8333 60.9401 42.612 60.8984 42.3359C60.8568 42.0547 60.8359 41.7943 60.8359 41.5547ZM61.0859 37.875L61.1016 38.8906H59.6406C59.2292 38.8906 58.862 38.9245 58.5391 38.9922C58.2161 39.0547 57.9453 39.151 57.7266 39.2812C57.5078 39.4115 57.3411 39.5755 57.2266 39.7734C57.112 39.9661 57.0547 40.1927 57.0547 40.4531C57.0547 40.7188 57.1146 40.9609 57.2344 41.1797C57.3542 41.3984 57.5339 41.5729 57.7734 41.7031C58.0182 41.8281 58.3177 41.8906 58.6719 41.8906C59.1146 41.8906 59.5052 41.7969 59.8438 41.6094C60.1823 41.4219 60.4505 41.1927 60.6484 40.9219C60.8516 40.651 60.9609 40.388 60.9766 40.1328L61.5938 40.8281C61.5573 41.0469 61.4583 41.2891 61.2969 41.5547C61.1354 41.8203 60.9193 42.0755 60.6484 42.3203C60.3828 42.5599 60.0651 42.7604 59.6953 42.9219C59.3307 43.0781 58.9193 43.1562 58.4609 43.1562C57.888 43.1562 57.3854 43.0443 56.9531 42.8203C56.526 42.5964 56.1927 42.2969 55.9531 41.9219C55.7188 41.5417 55.6016 41.1172 55.6016 40.6484C55.6016 40.1953 55.6901 39.7969 55.8672 39.4531C56.0443 39.1042 56.2995 38.8151 56.6328 38.5859C56.9661 38.3516 57.3672 38.1745 57.8359 38.0547C58.3047 37.9349 58.8281 37.875 59.4062 37.875H61.0859Z" fill="black"/>
<path d="M4.6849 44C5.9729 44 7.01823 42.9547 7.01823 41.6667V39.3333H4.6849C3.3969 39.3333 2.35156 40.3787 2.35156 41.6667C2.35156 42.9547 3.3969 44 4.6849 44Z" fill="#0ACF83"/>
<path d="M2.35156 37C2.35156 35.712 3.3969 34.6667 4.6849 34.6667H7.01823V39.3333H4.6849C3.3969 39.3333 2.35156 38.288 2.35156 37Z" fill="#A259FF"/>
<path d="M2.35156 32.3333C2.35156 31.0453 3.3969 30 4.6849 30H7.01823V34.6667H4.6849C3.3969 34.6667 2.35156 33.6213 2.35156 32.3333Z" fill="#F24E1E"/>
<path d="M7.01831 30H9.35164C10.6396 30 11.685 31.0453 11.685 32.3333C11.685 33.6213 10.6396 34.6667 9.35164 34.6667H7.01831V30Z" fill="#FF7262"/>
<path d="M11.685 37C11.685 38.288 10.6396 39.3333 9.35164 39.3333C8.06364 39.3333 7.01831 38.288 7.01831 37C7.01831 35.712 8.06364 34.6667 9.35164 34.6667C10.6396 34.6667 11.685 35.712 11.685 37Z" fill="#1ABCFE"/>
<path d="M23.9922 126.273L27.3438 116.625H28.9766L24.7656 128H23.6016L23.9922 126.273ZM20.8594 116.625L24.1797 126.273L24.5938 128H23.4297L19.2266 116.625H20.8594ZM36.5703 125.125C36.5703 124.859 36.5286 124.625 36.4453 124.422C36.3672 124.214 36.2266 124.026 36.0234 123.859C35.8255 123.693 35.5495 123.534 35.1953 123.383C34.8464 123.232 34.4036 123.078 33.8672 122.922C33.3047 122.755 32.7969 122.57 32.3438 122.367C31.8906 122.159 31.5026 121.922 31.1797 121.656C30.8568 121.391 30.6094 121.086 30.4375 120.742C30.2656 120.398 30.1797 120.005 30.1797 119.562C30.1797 119.12 30.2708 118.711 30.4531 118.336C30.6354 117.961 30.8958 117.635 31.2344 117.359C31.5781 117.078 31.987 116.859 32.4609 116.703C32.9349 116.547 33.4635 116.469 34.0469 116.469C34.901 116.469 35.625 116.633 36.2188 116.961C36.8177 117.284 37.2734 117.708 37.5859 118.234C37.8984 118.755 38.0547 119.312 38.0547 119.906H36.5547C36.5547 119.479 36.4635 119.102 36.2812 118.773C36.099 118.44 35.8229 118.18 35.4531 117.992C35.0833 117.799 34.6146 117.703 34.0469 117.703C33.5104 117.703 33.0677 117.784 32.7188 117.945C32.3698 118.107 32.1094 118.326 31.9375 118.602C31.7708 118.878 31.6875 119.193 31.6875 119.547C31.6875 119.786 31.737 120.005 31.8359 120.203C31.9401 120.396 32.099 120.576 32.3125 120.742C32.5312 120.909 32.8073 121.062 33.1406 121.203C33.4792 121.344 33.8828 121.479 34.3516 121.609C34.9974 121.792 35.5547 121.995 36.0234 122.219C36.4922 122.443 36.8776 122.695 37.1797 122.977C37.487 123.253 37.7135 123.568 37.8594 123.922C38.0104 124.271 38.0859 124.667 38.0859 125.109C38.0859 125.573 37.9922 125.992 37.8047 126.367C37.6172 126.742 37.349 127.062 37 127.328C36.651 127.594 36.2318 127.799 35.7422 127.945C35.2578 128.086 34.7161 128.156 34.1172 128.156C33.5911 128.156 33.0729 128.083 32.5625 127.938C32.0573 127.792 31.5964 127.573 31.1797 127.281C30.7682 126.99 30.4375 126.63 30.1875 126.203C29.9427 125.771 29.8203 125.271 29.8203 124.703H31.3203C31.3203 125.094 31.3958 125.43 31.5469 125.711C31.6979 125.987 31.9036 126.216 32.1641 126.398C32.4297 126.581 32.7292 126.716 33.0625 126.805C33.401 126.888 33.7526 126.93 34.1172 126.93C34.6432 126.93 35.0885 126.857 35.4531 126.711C35.8177 126.565 36.0938 126.357 36.2812 126.086C36.474 125.815 36.5703 125.495 36.5703 125.125ZM46.875 124.383H48.375C48.2969 125.102 48.0911 125.745 47.7578 126.312C47.4245 126.88 46.9531 127.331 46.3438 127.664C45.7344 127.992 44.974 128.156 44.0625 128.156C43.3958 128.156 42.7891 128.031 42.2422 127.781C41.7005 127.531 41.2344 127.177 40.8438 126.719C40.4531 126.255 40.151 125.701 39.9375 125.055C39.7292 124.404 39.625 123.68 39.625 122.883V121.75C39.625 120.953 39.7292 120.232 39.9375 119.586C40.151 118.935 40.4557 118.378 40.8516 117.914C41.2526 117.451 41.7344 117.094 42.2969 116.844C42.8594 116.594 43.4922 116.469 44.1953 116.469C45.0547 116.469 45.7812 116.63 46.375 116.953C46.9688 117.276 47.4297 117.724 47.7578 118.297C48.0911 118.865 48.2969 119.523 48.375 120.273H46.875C46.8021 119.742 46.6667 119.286 46.4688 118.906C46.2708 118.521 45.9896 118.224 45.625 118.016C45.2604 117.807 44.7839 117.703 44.1953 117.703C43.6901 117.703 43.2448 117.799 42.8594 117.992C42.4792 118.185 42.1589 118.458 41.8984 118.812C41.6432 119.167 41.4505 119.591 41.3203 120.086C41.1901 120.581 41.125 121.13 41.125 121.734V122.883C41.125 123.44 41.1823 123.964 41.2969 124.453C41.4167 124.943 41.5964 125.372 41.8359 125.742C42.0755 126.112 42.3802 126.404 42.75 126.617C43.1198 126.826 43.5573 126.93 44.0625 126.93C44.7031 126.93 45.2135 126.828 45.5938 126.625C45.974 126.422 46.2604 126.13 46.4531 125.75C46.651 125.37 46.7917 124.914 46.875 124.383ZM49.8281 123.867V123.688C49.8281 123.078 49.9167 122.513 50.0938 121.992C50.2708 121.466 50.526 121.01 50.8594 120.625C51.1927 120.234 51.5964 119.932 52.0703 119.719C52.5443 119.5 53.0755 119.391 53.6641 119.391C54.2578 119.391 54.7917 119.5 55.2656 119.719C55.7448 119.932 56.151 120.234 56.4844 120.625C56.8229 121.01 57.0807 121.466 57.2578 121.992C57.4349 122.513 57.5234 123.078 57.5234 123.688V123.867C57.5234 124.477 57.4349 125.042 57.2578 125.562C57.0807 126.083 56.8229 126.539 56.4844 126.93C56.151 127.315 55.7474 127.617 55.2734 127.836C54.8047 128.049 54.2734 128.156 53.6797 128.156C53.0859 128.156 52.5521 128.049 52.0781 127.836C51.6042 127.617 51.1979 127.315 50.8594 126.93C50.526 126.539 50.2708 126.083 50.0938 125.562C49.9167 125.042 49.8281 124.477 49.8281 123.867ZM51.2734 123.688V123.867C51.2734 124.289 51.3229 124.688 51.4219 125.062C51.5208 125.432 51.6693 125.76 51.8672 126.047C52.0703 126.333 52.3229 126.56 52.625 126.727C52.9271 126.888 53.2786 126.969 53.6797 126.969C54.0755 126.969 54.4219 126.888 54.7188 126.727C55.0208 126.56 55.2708 126.333 55.4688 126.047C55.6667 125.76 55.8151 125.432 55.9141 125.062C56.0182 124.688 56.0703 124.289 56.0703 123.867V123.688C56.0703 123.271 56.0182 122.878 55.9141 122.508C55.8151 122.133 55.6641 121.802 55.4609 121.516C55.263 121.224 55.013 120.995 54.7109 120.828C54.4141 120.661 54.0651 120.578 53.6641 120.578C53.2682 120.578 52.9193 120.661 52.6172 120.828C52.3203 120.995 52.0703 121.224 51.8672 121.516C51.6693 121.802 51.5208 122.133 51.4219 122.508C51.3229 122.878 51.2734 123.271 51.2734 123.688ZM64.6641 126.359V116H66.1172V128H64.7891L64.6641 126.359ZM58.9766 123.867V123.703C58.9766 123.057 59.0547 122.471 59.2109 121.945C59.3724 121.414 59.599 120.958 59.8906 120.578C60.1875 120.198 60.5391 119.906 60.9453 119.703C61.3568 119.495 61.8151 119.391 62.3203 119.391C62.8516 119.391 63.3151 119.484 63.7109 119.672C64.112 119.854 64.4505 120.122 64.7266 120.477C65.0078 120.826 65.2292 121.247 65.3906 121.742C65.5521 122.237 65.6641 122.797 65.7266 123.422V124.141C65.6693 124.76 65.5573 125.318 65.3906 125.812C65.2292 126.307 65.0078 126.729 64.7266 127.078C64.4505 127.427 64.112 127.695 63.7109 127.883C63.3099 128.065 62.8411 128.156 62.3047 128.156C61.8099 128.156 61.3568 128.049 60.9453 127.836C60.5391 127.622 60.1875 127.323 59.8906 126.938C59.599 126.552 59.3724 126.099 59.2109 125.578C59.0547 125.052 58.9766 124.482 58.9766 123.867ZM60.4297 123.703V123.867C60.4297 124.289 60.4714 124.685 60.5547 125.055C60.6432 125.424 60.7786 125.75 60.9609 126.031C61.1432 126.312 61.375 126.534 61.6562 126.695C61.9375 126.852 62.2734 126.93 62.6641 126.93C63.1432 126.93 63.5365 126.828 63.8438 126.625C64.1562 126.422 64.4062 126.154 64.5938 125.82C64.7812 125.487 64.9271 125.125 65.0312 124.734V122.852C64.9688 122.565 64.8776 122.289 64.7578 122.023C64.6432 121.753 64.4922 121.513 64.3047 121.305C64.1224 121.091 63.8958 120.922 63.625 120.797C63.3594 120.672 63.0443 120.609 62.6797 120.609C62.2839 120.609 61.9427 120.693 61.6562 120.859C61.375 121.021 61.1432 121.245 60.9609 121.531C60.7786 121.812 60.6432 122.141 60.5547 122.516C60.4714 122.885 60.4297 123.281 60.4297 123.703ZM71.875 128.156C71.2865 128.156 70.7526 128.057 70.2734 127.859C69.7995 127.656 69.3906 127.372 69.0469 127.008C68.7083 126.643 68.4479 126.211 68.2656 125.711C68.0833 125.211 67.9922 124.664 67.9922 124.07V123.742C67.9922 123.055 68.0938 122.443 68.2969 121.906C68.5 121.365 68.776 120.906 69.125 120.531C69.474 120.156 69.8698 119.872 70.3125 119.68C70.7552 119.487 71.2135 119.391 71.6875 119.391C72.2917 119.391 72.8125 119.495 73.25 119.703C73.6927 119.911 74.0547 120.203 74.3359 120.578C74.6172 120.948 74.8255 121.385 74.9609 121.891C75.0964 122.391 75.1641 122.938 75.1641 123.531V124.18H68.8516V123H73.7188V122.891C73.6979 122.516 73.6198 122.151 73.4844 121.797C73.3542 121.443 73.1458 121.151 72.8594 120.922C72.5729 120.693 72.1823 120.578 71.6875 120.578C71.3594 120.578 71.0573 120.648 70.7812 120.789C70.5052 120.924 70.2682 121.128 70.0703 121.398C69.8724 121.669 69.7188 122 69.6094 122.391C69.5 122.781 69.4453 123.232 69.4453 123.742V124.07C69.4453 124.471 69.5 124.849 69.6094 125.203C69.724 125.552 69.888 125.859 70.1016 126.125C70.3203 126.391 70.5833 126.599 70.8906 126.75C71.2031 126.901 71.5573 126.977 71.9531 126.977C72.4635 126.977 72.8958 126.872 73.25 126.664C73.6042 126.456 73.9141 126.177 74.1797 125.828L75.0547 126.523C74.8724 126.799 74.6406 127.062 74.3594 127.312C74.0781 127.562 73.7318 127.766 73.3203 127.922C72.9141 128.078 72.4323 128.156 71.875 128.156Z" fill="black"/>
<g clip-path="url(#clip1_0_614)">
<mask id="mask0_0_614" style="mask-type:alpha" maskUnits="userSpaceOnUse" x="0" y="116" width="14" height="14">
<path d="M9.88901 129.814C10.1087 129.9 10.3591 129.894 10.5808 129.788L13.452 128.406C13.7537 128.261 13.9455 127.956 13.9455 127.621V118.253C13.9455 117.918 13.7537 117.613 13.452 117.467L10.5808 116.086C10.2899 115.946 9.94937 115.98 9.69405 116.166C9.65755 116.192 9.62279 116.222 9.59022 116.255L4.09372 121.269L1.69957 119.452C1.47669 119.283 1.16496 119.296 0.957965 119.485L0.190082 120.183C-0.0631107 120.414 -0.0634011 120.812 0.189455 121.043L2.26574 122.937L0.189455 124.831C-0.0634011 125.062 -0.0631107 125.46 0.190082 125.69L0.957965 126.389C1.16496 126.577 1.47669 126.591 1.69957 126.422L4.09372 124.604L9.59022 129.619C9.67716 129.706 9.77924 129.772 9.88901 129.814ZM10.4613 119.771L6.29068 122.937L10.4613 126.103V119.771Z" fill="white"/>
</mask>
<g mask="url(#mask0_0_614)">
<path d="M13.4605 117.47L10.5871 116.086C10.2545 115.926 9.85705 115.994 9.59601 116.255L0.18957 124.831C-0.0634397 125.062 -0.0631488 125.46 0.190197 125.69L0.958545 126.389C1.16567 126.577 1.4776 126.591 1.7006 126.422L13.0281 117.829C13.4081 117.54 13.954 117.811 13.954 118.288V118.255C13.954 117.92 13.7622 117.615 13.4605 117.47Z" fill="#0065A9"/>
<path d="M13.4605 128.404L10.5871 129.787C10.2545 129.948 9.85705 129.88 9.59601 129.619L0.18957 121.043C-0.0634397 120.812 -0.0631488 120.414 0.190197 120.183L0.958545 119.485C1.16567 119.296 1.4776 119.283 1.7006 119.452L13.0281 128.045C13.4081 128.333 13.954 128.062 13.954 127.585V127.619C13.954 127.953 13.7622 128.259 13.4605 128.404Z" fill="#007ACC"/>
<path d="M10.5781 129.789C10.2455 129.949 9.84796 129.881 9.58691 129.62C9.90853 129.942 10.4585 129.714 10.4585 129.259V116.616C10.4585 116.162 9.90853 115.934 9.58691 116.255C9.84796 115.994 10.2455 115.927 10.5781 116.087L13.451 117.468C13.7529 117.614 13.9449 117.919 13.9449 118.254V127.622C13.9449 127.957 13.7529 128.262 13.451 128.407L10.5781 129.789Z" fill="#1F9CF0"/>
<path d="M9.88903 129.814C10.1087 129.9 10.3591 129.894 10.5808 129.788L13.4519 128.406C13.7537 128.261 13.9455 127.956 13.9455 127.621V118.253C13.9455 117.918 13.7537 117.612 13.452 117.467L10.5808 116.086C10.2899 115.946 9.94938 115.98 9.69401 116.166C9.65756 116.192 9.62281 116.222 9.59018 116.254L4.09372 121.269L1.69956 119.452C1.4767 119.282 1.16496 119.296 0.957962 119.485L0.190082 120.183C-0.0631107 120.413 -0.0634011 120.812 0.189455 121.042L2.26575 122.937L0.189455 124.831C-0.0634011 125.062 -0.0631107 125.46 0.190082 125.69L0.957962 126.389C1.16496 126.577 1.4767 126.591 1.69956 126.422L4.09372 124.604L9.59018 129.619C9.67712 129.706 9.77926 129.771 9.88903 129.814ZM10.4613 119.771L6.2907 122.937L10.4613 126.102V119.771Z" fill="url(#paint0_linear_0_614)" fill-opacity="0.25"/>
</g>
</g>
<path d="M27.1875 11.3828H28.6875C28.6094 12.1016 28.4036 12.7448 28.0703 13.3125C27.737 13.8802 27.2656 14.3307 26.6562 14.6641C26.0469 14.9922 25.2865 15.1562 24.375 15.1562C23.7083 15.1562 23.1016 15.0312 22.5547 14.7812C22.013 14.5312 21.5469 14.1771 21.1562 13.7188C20.7656 13.2552 20.4635 12.7005 20.25 12.0547C20.0417 11.4036 19.9375 10.6797 19.9375 9.88281V8.75C19.9375 7.95312 20.0417 7.23177 20.25 6.58594C20.4635 5.9349 20.7682 5.3776 21.1641 4.91406C21.5651 4.45052 22.0469 4.09375 22.6094 3.84375C23.1719 3.59375 23.8047 3.46875 24.5078 3.46875C25.3672 3.46875 26.0938 3.63021 26.6875 3.95312C27.2812 4.27604 27.7422 4.72396 28.0703 5.29688C28.4036 5.86458 28.6094 6.52344 28.6875 7.27344H27.1875C27.1146 6.74219 26.9792 6.28646 26.7812 5.90625C26.5833 5.52083 26.3021 5.22396 25.9375 5.01562C25.5729 4.80729 25.0964 4.70312 24.5078 4.70312C24.0026 4.70312 23.5573 4.79948 23.1719 4.99219C22.7917 5.1849 22.4714 5.45833 22.2109 5.8125C21.9557 6.16667 21.763 6.59115 21.6328 7.08594C21.5026 7.58073 21.4375 8.13021 21.4375 8.73438V9.88281C21.4375 10.4401 21.4948 10.9635 21.6094 11.4531C21.7292 11.9427 21.9089 12.3724 22.1484 12.7422C22.388 13.112 22.6927 13.4036 23.0625 13.6172C23.4323 13.8255 23.8698 13.9297 24.375 13.9297C25.0156 13.9297 25.526 13.8281 25.9062 13.625C26.2865 13.4219 26.5729 13.1302 26.7656 12.75C26.9635 12.3698 27.1042 11.9141 27.1875 11.3828ZM31.9688 3V15H30.5234V3H31.9688ZM31.625 10.4531L31.0234 10.4297C31.0286 9.85156 31.1146 9.31771 31.2812 8.82812C31.4479 8.33333 31.6823 7.90365 31.9844 7.53906C32.2865 7.17448 32.6458 6.89323 33.0625 6.69531C33.4844 6.49219 33.9505 6.39062 34.4609 6.39062C34.8776 6.39062 35.2526 6.44792 35.5859 6.5625C35.9193 6.67188 36.2031 6.84896 36.4375 7.09375C36.6771 7.33854 36.8594 7.65625 36.9844 8.04688C37.1094 8.43229 37.1719 8.90365 37.1719 9.46094V15H35.7188V9.44531C35.7188 9.0026 35.6536 8.64844 35.5234 8.38281C35.3932 8.11198 35.2031 7.91667 34.9531 7.79688C34.7031 7.67188 34.3958 7.60938 34.0312 7.60938C33.6719 7.60938 33.3438 7.6849 33.0469 7.83594C32.7552 7.98698 32.5026 8.19531 32.2891 8.46094C32.0807 8.72656 31.9167 9.03125 31.7969 9.375C31.6823 9.71354 31.625 10.0729 31.625 10.4531ZM40.7812 7.875V15H39.3359V6.54688H40.7422L40.7812 7.875ZM43.4219 6.5L43.4141 7.84375C43.2943 7.81771 43.1797 7.80208 43.0703 7.79688C42.9661 7.78646 42.8464 7.78125 42.7109 7.78125C42.3776 7.78125 42.0833 7.83333 41.8281 7.9375C41.5729 8.04167 41.3568 8.1875 41.1797 8.375C41.0026 8.5625 40.862 8.78646 40.7578 9.04688C40.6589 9.30208 40.5938 9.58333 40.5625 9.89062L40.1562 10.125C40.1562 9.61458 40.2057 9.13542 40.3047 8.6875C40.4089 8.23958 40.5677 7.84375 40.7812 7.5C40.9948 7.15104 41.2656 6.88021 41.5938 6.6875C41.9271 6.48958 42.3229 6.39062 42.7812 6.39062C42.8854 6.39062 43.0052 6.40365 43.1406 6.42969C43.276 6.45052 43.3698 6.47396 43.4219 6.5ZM44.2188 10.8672V10.6875C44.2188 10.0781 44.3073 9.51302 44.4844 8.99219C44.6615 8.46615 44.9167 8.01042 45.25 7.625C45.5833 7.23438 45.987 6.93229 46.4609 6.71875C46.9349 6.5 47.4661 6.39062 48.0547 6.39062C48.6484 6.39062 49.1823 6.5 49.6562 6.71875C50.1354 6.93229 50.5417 7.23438 50.875 7.625C51.2135 8.01042 51.4714 8.46615 51.6484 8.99219C51.8255 9.51302 51.9141 10.0781 51.9141 10.6875V10.8672C51.9141 11.4766 51.8255 12.0417 51.6484 12.5625C51.4714 13.0833 51.2135 13.5391 50.875 13.9297C50.5417 14.3151 50.138 14.6172 49.6641 14.8359C49.1953 15.0495 48.6641 15.1562 48.0703 15.1562C47.4766 15.1562 46.9427 15.0495 46.4688 14.8359C45.9948 14.6172 45.5885 14.3151 45.25 13.9297C44.9167 13.5391 44.6615 13.0833 44.4844 12.5625C44.3073 12.0417 44.2188 11.4766 44.2188 10.8672ZM45.6641 10.6875V10.8672C45.6641 11.2891 45.7135 11.6875 45.8125 12.0625C45.9115 12.4323 46.0599 12.7604 46.2578 13.0469C46.4609 13.3333 46.7135 13.5599 47.0156 13.7266C47.3177 13.888 47.6693 13.9688 48.0703 13.9688C48.4661 13.9688 48.8125 13.888 49.1094 13.7266C49.4115 13.5599 49.6615 13.3333 49.8594 13.0469C50.0573 12.7604 50.2057 12.4323 50.3047 12.0625C50.4089 11.6875 50.4609 11.2891 50.4609 10.8672V10.6875C50.4609 10.2708 50.4089 9.8776 50.3047 9.50781C50.2057 9.13281 50.0547 8.80208 49.8516 8.51562C49.6536 8.22396 49.4036 7.99479 49.1016 7.82812C48.8047 7.66146 48.4557 7.57812 48.0547 7.57812C47.6589 7.57812 47.3099 7.66146 47.0078 7.82812C46.7109 7.99479 46.4609 8.22396 46.2578 8.51562C46.0599 8.80208 45.9115 9.13281 45.8125 9.50781C45.7135 9.8776 45.6641 10.2708 45.6641 10.6875ZM55.1641 8.22656V15H53.7109V6.54688H55.0859L55.1641 8.22656ZM54.8672 10.4531L54.1953 10.4297C54.2005 9.85156 54.276 9.31771 54.4219 8.82812C54.5677 8.33333 54.7839 7.90365 55.0703 7.53906C55.3568 7.17448 55.7135 6.89323 56.1406 6.69531C56.5677 6.49219 57.0625 6.39062 57.625 6.39062C58.0208 6.39062 58.3854 6.44792 58.7188 6.5625C59.0521 6.67188 59.3411 6.84635 59.5859 7.08594C59.8307 7.32552 60.0208 7.63281 60.1562 8.00781C60.2917 8.38281 60.3594 8.83594 60.3594 9.36719V15H58.9141V9.4375C58.9141 8.99479 58.8385 8.64062 58.6875 8.375C58.5417 8.10938 58.3333 7.91667 58.0625 7.79688C57.7917 7.67188 57.474 7.60938 57.1094 7.60938C56.6823 7.60938 56.3255 7.6849 56.0391 7.83594C55.7526 7.98698 55.5234 8.19531 55.3516 8.46094C55.1797 8.72656 55.0547 9.03125 54.9766 9.375C54.9036 9.71354 54.8672 10.0729 54.8672 10.4531ZM60.3438 9.65625L59.375 9.95312C59.3802 9.48958 59.4557 9.04427 59.6016 8.61719C59.7526 8.1901 59.9688 7.8099 60.25 7.47656C60.5365 7.14323 60.888 6.88021 61.3047 6.6875C61.7214 6.48958 62.1979 6.39062 62.7344 6.39062C63.1875 6.39062 63.5885 6.45052 63.9375 6.57031C64.2917 6.6901 64.5885 6.875 64.8281 7.125C65.0729 7.36979 65.2578 7.6849 65.3828 8.07031C65.5078 8.45573 65.5703 8.91406 65.5703 9.44531V15H64.1172V9.42969C64.1172 8.95573 64.0417 8.58854 63.8906 8.32812C63.7448 8.0625 63.5365 7.8776 63.2656 7.77344C63 7.66406 62.6823 7.60938 62.3125 7.60938C61.9948 7.60938 61.7135 7.66406 61.4688 7.77344C61.224 7.88281 61.0182 8.03385 60.8516 8.22656C60.6849 8.41406 60.5573 8.63021 60.4688 8.875C60.3854 9.11979 60.3438 9.38021 60.3438 9.65625ZM71.2656 15.1562C70.6771 15.1562 70.1432 15.0573 69.6641 14.8594C69.1901 14.6562 68.7812 14.3724 68.4375 14.0078C68.099 13.6432 67.8385 13.2109 67.6562 12.7109C67.474 12.2109 67.3828 11.6641 67.3828 11.0703V10.7422C67.3828 10.0547 67.4844 9.44271 67.6875 8.90625C67.8906 8.36458 68.1667 7.90625 68.5156 7.53125C68.8646 7.15625 69.2604 6.8724 69.7031 6.67969C70.1458 6.48698 70.6042 6.39062 71.0781 6.39062C71.6823 6.39062 72.2031 6.49479 72.6406 6.70312C73.0833 6.91146 73.4453 7.20312 73.7266 7.57812C74.0078 7.94792 74.2161 8.38542 74.3516 8.89062C74.487 9.39062 74.5547 9.9375 74.5547 10.5312V11.1797H68.2422V10H73.1094V9.89062C73.0885 9.51562 73.0104 9.15104 72.875 8.79688C72.7448 8.44271 72.5365 8.15104 72.25 7.92188C71.9635 7.69271 71.5729 7.57812 71.0781 7.57812C70.75 7.57812 70.4479 7.64844 70.1719 7.78906C69.8958 7.92448 69.6589 8.1276 69.4609 8.39844C69.263 8.66927 69.1094 9 69 9.39062C68.8906 9.78125 68.8359 10.2318 68.8359 10.7422V11.0703C68.8359 11.4714 68.8906 11.849 69 12.2031C69.1146 12.5521 69.2786 12.8594 69.4922 13.125C69.7109 13.3906 69.974 13.599 70.2812 13.75C70.5938 13.901 70.9479 13.9766 71.3438 13.9766C71.8542 13.9766 72.2865 13.8724 72.6406 13.6641C72.9948 13.4557 73.3047 13.1771 73.5703 12.8281L74.4453 13.5234C74.263 13.7995 74.0312 14.0625 73.75 14.3125C73.4688 14.5625 73.1224 14.7656 72.7109 14.9219C72.3047 15.0781 71.8229 15.1562 71.2656 15.1562Z" fill="black"/>
<path fill-rule="evenodd" clip-rule="evenodd" d="M6.98945 2.16594C6.98945 2.16594 10.9964 1.98611 13.1207 6.01364H6.64851C6.64851 6.01364 5.42714 5.9743 4.38373 7.45606C4.08401 8.07798 3.7618 8.71864 4.12335 9.98123C3.60258 9.09892 1.3584 5.19127 1.3584 5.19127C1.3584 5.19127 2.94131 2.32517 6.98945 2.16594Z" fill="#EF3F36"/>
<path fill-rule="evenodd" clip-rule="evenodd" d="M12.9128 12.3902C12.9128 12.3902 11.0639 15.9513 6.51562 15.7752C7.07761 14.803 9.75264 10.1704 9.75264 10.1704C9.75264 10.1704 10.3989 9.13262 9.63649 7.48789C9.24873 6.91655 8.85347 6.31897 7.57964 6.00052C8.60432 5.99115 13.1095 6.00052 13.1095 6.00052C13.1095 6.00052 14.7974 8.8048 12.9128 12.3902Z" fill="#FCD900"/>
<path fill-rule="evenodd" clip-rule="evenodd" d="M1.09422 12.4184C1.09422 12.4184 -1.06566 9.0371 1.3621 5.18565C1.92221 6.15788 4.59724 10.7905 4.59724 10.7905C4.59724 10.7905 5.17421 11.8695 6.97817 12.0306C7.66566 11.98 8.38125 11.9369 9.2954 10.9947C8.79149 11.8863 6.53046 15.7827 6.53046 15.7827C6.53046 15.7827 3.25598 15.8427 1.09422 12.4184Z" fill="#61BC5B"/>
<path fill-rule="evenodd" clip-rule="evenodd" d="M6.51367 15.809L7.42408 12.01C7.42408 12.01 8.42441 11.9313 9.26363 11.0115C8.74286 11.9275 6.51367 15.809 6.51367 15.809Z" fill="#5AB055"/>
<path fill-rule="evenodd" clip-rule="evenodd" d="M3.93994 9.02961C3.93994 7.3549 5.29806 5.99678 6.97277 5.99678C8.64747 5.99678 10.0056 7.3549 10.0056 9.02961C10.0056 10.7043 8.64747 12.0624 6.97277 12.0624C5.29806 12.0606 3.93994 10.7043 3.93994 9.02961Z" fill="white"/>
<path fill-rule="evenodd" clip-rule="evenodd" d="M4.44751 9.02959C4.44751 7.63588 5.57709 6.50443 6.97268 6.50443C8.36639 6.50443 9.49785 7.63401 9.49785 9.02959C9.49785 10.4233 8.36827 11.5548 6.97268 11.5548C5.57897 11.5548 4.44751 10.4233 4.44751 9.02959Z" fill="url(#paint1_linear_0_614)"/>
<path fill-rule="evenodd" clip-rule="evenodd" d="M13.1075 6.00239L9.35912 7.102C9.35912 7.102 8.79339 6.27214 7.57764 6.00239C8.63229 5.99677 13.1075 6.00239 13.1075 6.00239Z" fill="#EACA05"/>
<path fill-rule="evenodd" clip-rule="evenodd" d="M4.05029 9.8426C3.5239 8.93032 1.3584 5.19127 1.3584 5.19127L4.13459 7.93748C4.13459 7.93748 3.84985 8.52382 3.95662 9.36304L4.05029 9.8426Z" fill="#DF3A32"/>
<defs>
<linearGradient id="paint0_linear_0_614" x1="6.97278" y1="116" x2="6.97278" y2="129.873" gradientUnits="userSpaceOnUse">
<stop stop-color="white"/>
<stop offset="1" stop-color="white" stop-opacity="0"/>
</linearGradient>
<linearGradient id="paint1_linear_0_614" x1="4.54122" y1="6.54007" x2="4.54122" y2="11.4027" gradientUnits="userSpaceOnUse">
<stop stop-color="#86BBE5"/>
<stop offset="1" stop-color="#1072BA"/>
</linearGradient>
<clipPath id="clip0_0_614">
<rect width="14" height="14" fill="white" transform="translate(0 58)"/>
</clipPath>
<clipPath id="clip1_0_614">
<rect width="14" height="13.8906" fill="white" transform="translate(0 116)"/>
</clipPath>
</defs>
</svg>
