<svg width="98" height="75" viewBox="0 0 98 75" fill="none" xmlns="http://www.w3.org/2000/svg">
<path d="M27.75 8.51562V9.74219H21.5938V8.51562H27.75ZM21.8281 3.625V15H20.3203V3.625H21.8281ZM29.0625 3.625V15H27.5625V3.625H29.0625ZM35.7109 3.625V15H34.2266V3.625H35.7109ZM39.3672 3.625V4.85938H30.5781V3.625H39.3672ZM41.5312 3.625H42.9922L46.7188 12.8984L50.4375 3.625H51.9062L47.2812 15H46.1406L41.5312 3.625ZM41.0547 3.625H42.3438L42.5547 10.5625V15H41.0547V3.625ZM51.0859 3.625H52.375V15H50.875V10.5625L51.0859 3.625ZM61.9219 13.7734V15H56.2344V13.7734H61.9219ZM56.5312 3.625V15H55.0234V3.625H56.5312Z" fill="black"/>
<g clip-path="url(#clip0_0_604)">
<path fill-rule="evenodd" clip-rule="evenodd" d="M1.94374 14.6005L0.820312 2H13.1648L12.0402 14.5985L6.985 16L1.94374 14.6005Z" fill="#E44D26"/>
<path fill-rule="evenodd" clip-rule="evenodd" d="M6.99268 14.9288L11.0775 13.7963L12.0386 3.03027H6.99268V14.9288Z" fill="#F16529"/>
<path d="M4.94759 7.70363H6.99256V9.24901H3.53425L3.11743 4.5757H6.99256V6.12112H4.80636L4.94759 7.70363Z" fill="#EBEBEB"/>
<path d="M6.98579 11.719L6.99256 11.7172V13.3251L6.98545 13.327L3.81981 12.4482L3.6033 10.0217H5.15464L5.26467 11.2543L6.98579 11.719Z" fill="#EBEBEB"/>
<path d="M6.9873 4.5757H10.8586L10.7202 6.12112H6.9873V4.5757Z" fill="white"/>
<path d="M6.9873 9.24901V7.70363H10.5796L10.5419 8.11861L10.1555 12.4482L6.9873 13.3263V11.7185L8.71091 11.2533L8.89029 9.24901H6.9873Z" fill="white"/>
</g>
<path d="M27.1875 39.3828H28.6875C28.6094 40.1016 28.4036 40.7448 28.0703 41.3125C27.737 41.8802 27.2656 42.3307 26.6562 42.6641C26.0469 42.9922 25.2865 43.1562 24.375 43.1562C23.7083 43.1562 23.1016 43.0312 22.5547 42.7812C22.013 42.5312 21.5469 42.1771 21.1562 41.7188C20.7656 41.2552 20.4635 40.7005 20.25 40.0547C20.0417 39.4036 19.9375 38.6797 19.9375 37.8828V36.75C19.9375 35.9531 20.0417 35.2318 20.25 34.5859C20.4635 33.9349 20.7682 33.3776 21.1641 32.9141C21.5651 32.4505 22.0469 32.0938 22.6094 31.8438C23.1719 31.5938 23.8047 31.4688 24.5078 31.4688C25.3672 31.4688 26.0938 31.6302 26.6875 31.9531C27.2812 32.276 27.7422 32.724 28.0703 33.2969C28.4036 33.8646 28.6094 34.5234 28.6875 35.2734H27.1875C27.1146 34.7422 26.9792 34.2865 26.7812 33.9062C26.5833 33.5208 26.3021 33.224 25.9375 33.0156C25.5729 32.8073 25.0964 32.7031 24.5078 32.7031C24.0026 32.7031 23.5573 32.7995 23.1719 32.9922C22.7917 33.1849 22.4714 33.4583 22.2109 33.8125C21.9557 34.1667 21.763 34.5911 21.6328 35.0859C21.5026 35.5807 21.4375 36.1302 21.4375 36.7344V37.8828C21.4375 38.4401 21.4948 38.9635 21.6094 39.4531C21.7292 39.9427 21.9089 40.3724 22.1484 40.7422C22.388 41.112 22.6927 41.4036 23.0625 41.6172C23.4323 41.8255 23.8698 41.9297 24.375 41.9297C25.0156 41.9297 25.526 41.8281 25.9062 41.625C26.2865 41.4219 26.5729 41.1302 26.7656 40.75C26.9635 40.3698 27.1042 39.9141 27.1875 39.3828ZM36.8047 40.125C36.8047 39.8594 36.763 39.625 36.6797 39.4219C36.6016 39.2135 36.4609 39.026 36.2578 38.8594C36.0599 38.6927 35.7839 38.5339 35.4297 38.3828C35.0807 38.2318 34.638 38.0781 34.1016 37.9219C33.5391 37.7552 33.0312 37.5703 32.5781 37.3672C32.125 37.1589 31.737 36.9219 31.4141 36.6562C31.0911 36.3906 30.8438 36.0859 30.6719 35.7422C30.5 35.3984 30.4141 35.0052 30.4141 34.5625C30.4141 34.1198 30.5052 33.7109 30.6875 33.3359C30.8698 32.9609 31.1302 32.6354 31.4688 32.3594C31.8125 32.0781 32.2214 31.8594 32.6953 31.7031C33.1693 31.5469 33.6979 31.4688 34.2812 31.4688C35.1354 31.4688 35.8594 31.6328 36.4531 31.9609C37.0521 32.2839 37.5078 32.7083 37.8203 33.2344C38.1328 33.7552 38.2891 34.3125 38.2891 34.9062H36.7891C36.7891 34.4792 36.6979 34.1016 36.5156 33.7734C36.3333 33.4401 36.0573 33.1797 35.6875 32.9922C35.3177 32.7995 34.849 32.7031 34.2812 32.7031C33.7448 32.7031 33.3021 32.7839 32.9531 32.9453C32.6042 33.1068 32.3438 33.3255 32.1719 33.6016C32.0052 33.8776 31.9219 34.1927 31.9219 34.5469C31.9219 34.7865 31.9714 35.0052 32.0703 35.2031C32.1745 35.3958 32.3333 35.5755 32.5469 35.7422C32.7656 35.9089 33.0417 36.0625 33.375 36.2031C33.7135 36.3438 34.1172 36.4792 34.5859 36.6094C35.2318 36.7917 35.7891 36.9948 36.2578 37.2188C36.7266 37.4427 37.112 37.6953 37.4141 37.9766C37.7214 38.2526 37.9479 38.5677 38.0938 38.9219C38.2448 39.2708 38.3203 39.6667 38.3203 40.1094C38.3203 40.5729 38.2266 40.9922 38.0391 41.3672C37.8516 41.7422 37.5833 42.0625 37.2344 42.3281C36.8854 42.5938 36.4661 42.7995 35.9766 42.9453C35.4922 43.0859 34.9505 43.1562 34.3516 43.1562C33.8255 43.1562 33.3073 43.0833 32.7969 42.9375C32.2917 42.7917 31.8307 42.5729 31.4141 42.2812C31.0026 41.9896 30.6719 41.6302 30.4219 41.2031C30.1771 40.7708 30.0547 40.2708 30.0547 39.7031H31.5547C31.5547 40.0938 31.6302 40.4297 31.7812 40.7109C31.9323 40.987 32.138 41.2161 32.3984 41.3984C32.6641 41.5807 32.9635 41.7161 33.2969 41.8047C33.6354 41.888 33.987 41.9297 34.3516 41.9297C34.8776 41.9297 35.3229 41.8568 35.6875 41.7109C36.0521 41.5651 36.3281 41.3568 36.5156 41.0859C36.7083 40.8151 36.8047 40.4948 36.8047 40.125ZM46.3047 40.125C46.3047 39.8594 46.263 39.625 46.1797 39.4219C46.1016 39.2135 45.9609 39.026 45.7578 38.8594C45.5599 38.6927 45.2839 38.5339 44.9297 38.3828C44.5807 38.2318 44.138 38.0781 43.6016 37.9219C43.0391 37.7552 42.5312 37.5703 42.0781 37.3672C41.625 37.1589 41.237 36.9219 40.9141 36.6562C40.5911 36.3906 40.3438 36.0859 40.1719 35.7422C40 35.3984 39.9141 35.0052 39.9141 34.5625C39.9141 34.1198 40.0052 33.7109 40.1875 33.3359C40.3698 32.9609 40.6302 32.6354 40.9688 32.3594C41.3125 32.0781 41.7214 31.8594 42.1953 31.7031C42.6693 31.5469 43.1979 31.4688 43.7812 31.4688C44.6354 31.4688 45.3594 31.6328 45.9531 31.9609C46.5521 32.2839 47.0078 32.7083 47.3203 33.2344C47.6328 33.7552 47.7891 34.3125 47.7891 34.9062H46.2891C46.2891 34.4792 46.1979 34.1016 46.0156 33.7734C45.8333 33.4401 45.5573 33.1797 45.1875 32.9922C44.8177 32.7995 44.349 32.7031 43.7812 32.7031C43.2448 32.7031 42.8021 32.7839 42.4531 32.9453C42.1042 33.1068 41.8438 33.3255 41.6719 33.6016C41.5052 33.8776 41.4219 34.1927 41.4219 34.5469C41.4219 34.7865 41.4714 35.0052 41.5703 35.2031C41.6745 35.3958 41.8333 35.5755 42.0469 35.7422C42.2656 35.9089 42.5417 36.0625 42.875 36.2031C43.2135 36.3438 43.6172 36.4792 44.0859 36.6094C44.7318 36.7917 45.2891 36.9948 45.7578 37.2188C46.2266 37.4427 46.612 37.6953 46.9141 37.9766C47.2214 38.2526 47.4479 38.5677 47.5938 38.9219C47.7448 39.2708 47.8203 39.6667 47.8203 40.1094C47.8203 40.5729 47.7266 40.9922 47.5391 41.3672C47.3516 41.7422 47.0833 42.0625 46.7344 42.3281C46.3854 42.5938 45.9661 42.7995 45.4766 42.9453C44.9922 43.0859 44.4505 43.1562 43.8516 43.1562C43.3255 43.1562 42.8073 43.0833 42.2969 42.9375C41.7917 42.7917 41.3307 42.5729 40.9141 42.2812C40.5026 41.9896 40.1719 41.6302 39.9219 41.2031C39.6771 40.7708 39.5547 40.2708 39.5547 39.7031H41.0547C41.0547 40.0938 41.1302 40.4297 41.2812 40.7109C41.4323 40.987 41.638 41.2161 41.8984 41.3984C42.1641 41.5807 42.4635 41.7161 42.7969 41.8047C43.1354 41.888 43.487 41.9297 43.8516 41.9297C44.3776 41.9297 44.8229 41.8568 45.1875 41.7109C45.5521 41.5651 45.8281 41.3568 46.0156 41.0859C46.2083 40.8151 46.3047 40.4948 46.3047 40.125Z" fill="black"/>
<path fill-rule="evenodd" clip-rule="evenodd" d="M1.94377 43.6004L0.820312 31H13.1653L12.0407 43.5984L6.98534 45L1.94377 43.6004Z" fill="#0071BC"/>
<path fill-rule="evenodd" clip-rule="evenodd" d="M7.00317 43.928L11.083 42.8056L12.0389 32.0494H7.00317V43.928Z" fill="#29ABE2"/>
<path fill-rule="evenodd" clip-rule="evenodd" d="M3.39185 36.6787L3.52718 38.2218L7.00313 36.6787V35.1331L3.39185 36.6787Z" fill="#B3B3B3"/>
<path fill-rule="evenodd" clip-rule="evenodd" d="M10.8529 33.4832L7.00317 35.1331V36.6787L10.7202 35.0263L10.8529 33.4832Z" fill="#E6E6E6"/>
<path fill-rule="evenodd" clip-rule="evenodd" d="M7.00308 40.7163L6.99114 40.718L5.26732 40.2551L5.1547 39.0242H3.60327L3.81977 41.4491L6.9908 42.3271L7.00308 42.3242V40.7163Z" fill="#E6E6E6"/>
<path fill-rule="evenodd" clip-rule="evenodd" d="M7.00317 36.6787V38.2218H8.89048L8.71894 40.2393L7.00317 40.7176V42.3254L10.1637 41.4474L10.5799 36.6787H7.00317Z" fill="white"/>
<path fill-rule="evenodd" clip-rule="evenodd" d="M7.00313 36.6787H3.39185L3.52718 38.2218H7.00313V36.6787Z" fill="#E6E6E6"/>
<path fill-rule="evenodd" clip-rule="evenodd" d="M7.00308 35.0263V33.4832H6.9874H3.11743L3.25437 35.0263H7.00308Z" fill="#E6E6E6"/>
<path fill-rule="evenodd" clip-rule="evenodd" d="M7.00317 33.4832V35.007V35.0263H10.7202L10.8529 33.4832H7.00317Z" fill="white"/>
<path d="M25.0938 67.6797V59.625H26.5938V67.6797C26.5938 68.4297 26.4401 69.0625 26.1328 69.5781C25.8255 70.0938 25.401 70.487 24.8594 70.7578C24.3229 71.0234 23.7057 71.1562 23.0078 71.1562C22.3099 71.1562 21.6901 71.0365 21.1484 70.7969C20.6068 70.5573 20.1823 70.1927 19.875 69.7031C19.5677 69.2135 19.4141 68.5964 19.4141 67.8516H20.9219C20.9219 68.3307 21.0104 68.724 21.1875 69.0312C21.3646 69.3385 21.6094 69.5651 21.9219 69.7109C22.2396 69.8568 22.6016 69.9297 23.0078 69.9297C23.4036 69.9297 23.7578 69.8464 24.0703 69.6797C24.388 69.5078 24.638 69.2552 24.8203 68.9219C25.0026 68.5833 25.0938 68.1693 25.0938 67.6797ZM33.9141 69.5547V65.2031C33.9141 64.8698 33.8464 64.5807 33.7109 64.3359C33.5807 64.0859 33.3828 63.8932 33.1172 63.7578C32.8516 63.6224 32.5234 63.5547 32.1328 63.5547C31.7682 63.5547 31.4479 63.6172 31.1719 63.7422C30.901 63.8672 30.6875 64.0312 30.5312 64.2344C30.3802 64.4375 30.3047 64.6562 30.3047 64.8906H28.8594C28.8594 64.5885 28.9375 64.2891 29.0938 63.9922C29.25 63.6953 29.474 63.4271 29.7656 63.1875C30.0625 62.9427 30.4167 62.75 30.8281 62.6094C31.2448 62.4635 31.7083 62.3906 32.2188 62.3906C32.8333 62.3906 33.375 62.4948 33.8438 62.7031C34.3177 62.9115 34.6875 63.2266 34.9531 63.6484C35.224 64.0651 35.3594 64.5885 35.3594 65.2188V69.1562C35.3594 69.4375 35.3828 69.737 35.4297 70.0547C35.4818 70.3724 35.5573 70.6458 35.6562 70.875V71H34.1484C34.0755 70.8333 34.0182 70.612 33.9766 70.3359C33.9349 70.0547 33.9141 69.7943 33.9141 69.5547ZM34.1641 65.875L34.1797 66.8906H32.7188C32.3073 66.8906 31.9401 66.9245 31.6172 66.9922C31.2943 67.0547 31.0234 67.151 30.8047 67.2812C30.5859 67.4115 30.4193 67.5755 30.3047 67.7734C30.1901 67.9661 30.1328 68.1927 30.1328 68.4531C30.1328 68.7188 30.1927 68.9609 30.3125 69.1797C30.4323 69.3984 30.612 69.5729 30.8516 69.7031C31.0964 69.8281 31.3958 69.8906 31.75 69.8906C32.1927 69.8906 32.5833 69.7969 32.9219 69.6094C33.2604 69.4219 33.5286 69.1927 33.7266 68.9219C33.9297 68.651 34.0391 68.388 34.0547 68.1328L34.6719 68.8281C34.6354 69.0469 34.5365 69.2891 34.375 69.5547C34.2135 69.8203 33.9974 70.0755 33.7266 70.3203C33.4609 70.5599 33.1432 70.7604 32.7734 70.9219C32.4089 71.0781 31.9974 71.1562 31.5391 71.1562C30.9661 71.1562 30.4635 71.0443 30.0312 70.8203C29.6042 70.5964 29.2708 70.2969 29.0312 69.9219C28.7969 69.5417 28.6797 69.1172 28.6797 68.6484C28.6797 68.1953 28.7682 67.7969 28.9453 67.4531C29.1224 67.1042 29.3776 66.8151 29.7109 66.5859C30.0443 66.3516 30.4453 66.1745 30.9141 66.0547C31.3828 65.9349 31.9062 65.875 32.4844 65.875H34.1641ZM40.0781 69.6953L42.3906 62.5469H43.8672L40.8281 71H39.8594L40.0781 69.6953ZM38.1484 62.5469L40.5312 69.7344L40.6953 71H39.7266L36.6641 62.5469H38.1484ZM50.1172 69.5547V65.2031C50.1172 64.8698 50.0495 64.5807 49.9141 64.3359C49.7839 64.0859 49.5859 63.8932 49.3203 63.7578C49.0547 63.6224 48.7266 63.5547 48.3359 63.5547C47.9714 63.5547 47.651 63.6172 47.375 63.7422C47.1042 63.8672 46.8906 64.0312 46.7344 64.2344C46.5833 64.4375 46.5078 64.6562 46.5078 64.8906H45.0625C45.0625 64.5885 45.1406 64.2891 45.2969 63.9922C45.4531 63.6953 45.6771 63.4271 45.9688 63.1875C46.2656 62.9427 46.6198 62.75 47.0312 62.6094C47.4479 62.4635 47.9115 62.3906 48.4219 62.3906C49.0365 62.3906 49.5781 62.4948 50.0469 62.7031C50.5208 62.9115 50.8906 63.2266 51.1562 63.6484C51.4271 64.0651 51.5625 64.5885 51.5625 65.2188V69.1562C51.5625 69.4375 51.5859 69.737 51.6328 70.0547C51.6849 70.3724 51.7604 70.6458 51.8594 70.875V71H50.3516C50.2786 70.8333 50.2214 70.612 50.1797 70.3359C50.138 70.0547 50.1172 69.7943 50.1172 69.5547ZM50.3672 65.875L50.3828 66.8906H48.9219C48.5104 66.8906 48.1432 66.9245 47.8203 66.9922C47.4974 67.0547 47.2266 67.151 47.0078 67.2812C46.7891 67.4115 46.6224 67.5755 46.5078 67.7734C46.3932 67.9661 46.3359 68.1927 46.3359 68.4531C46.3359 68.7188 46.3958 68.9609 46.5156 69.1797C46.6354 69.3984 46.8151 69.5729 47.0547 69.7031C47.2995 69.8281 47.599 69.8906 47.9531 69.8906C48.3958 69.8906 48.7865 69.7969 49.125 69.6094C49.4635 69.4219 49.7318 69.1927 49.9297 68.9219C50.1328 68.651 50.2422 68.388 50.2578 68.1328L50.875 68.8281C50.8385 69.0469 50.7396 69.2891 50.5781 69.5547C50.4167 69.8203 50.2005 70.0755 49.9297 70.3203C49.6641 70.5599 49.3464 70.7604 48.9766 70.9219C48.612 71.0781 48.2005 71.1562 47.7422 71.1562C47.1693 71.1562 46.6667 71.0443 46.2344 70.8203C45.8073 70.5964 45.474 70.2969 45.2344 69.9219C45 69.5417 44.8828 69.1172 44.8828 68.6484C44.8828 68.1953 44.9714 67.7969 45.1484 67.4531C45.3255 67.1042 45.5807 66.8151 45.9141 66.5859C46.2474 66.3516 46.6484 66.1745 47.1172 66.0547C47.5859 65.9349 48.1094 65.875 48.6875 65.875H50.3672ZM60.1172 68.125C60.1172 67.8594 60.0755 67.625 59.9922 67.4219C59.9141 67.2135 59.7734 67.026 59.5703 66.8594C59.3724 66.6927 59.0964 66.5339 58.7422 66.3828C58.3932 66.2318 57.9505 66.0781 57.4141 65.9219C56.8516 65.7552 56.3438 65.5703 55.8906 65.3672C55.4375 65.1589 55.0495 64.9219 54.7266 64.6562C54.4036 64.3906 54.1562 64.0859 53.9844 63.7422C53.8125 63.3984 53.7266 63.0052 53.7266 62.5625C53.7266 62.1198 53.8177 61.7109 54 61.3359C54.1823 60.9609 54.4427 60.6354 54.7812 60.3594C55.125 60.0781 55.5339 59.8594 56.0078 59.7031C56.4818 59.5469 57.0104 59.4688 57.5938 59.4688C58.4479 59.4688 59.1719 59.6328 59.7656 59.9609C60.3646 60.2839 60.8203 60.7083 61.1328 61.2344C61.4453 61.7552 61.6016 62.3125 61.6016 62.9062H60.1016C60.1016 62.4792 60.0104 62.1016 59.8281 61.7734C59.6458 61.4401 59.3698 61.1797 59 60.9922C58.6302 60.7995 58.1615 60.7031 57.5938 60.7031C57.0573 60.7031 56.6146 60.7839 56.2656 60.9453C55.9167 61.1068 55.6562 61.3255 55.4844 61.6016C55.3177 61.8776 55.2344 62.1927 55.2344 62.5469C55.2344 62.7865 55.2839 63.0052 55.3828 63.2031C55.487 63.3958 55.6458 63.5755 55.8594 63.7422C56.0781 63.9089 56.3542 64.0625 56.6875 64.2031C57.026 64.3438 57.4297 64.4792 57.8984 64.6094C58.5443 64.7917 59.1016 64.9948 59.5703 65.2188C60.0391 65.4427 60.4245 65.6953 60.7266 65.9766C61.0339 66.2526 61.2604 66.5677 61.4062 66.9219C61.5573 67.2708 61.6328 67.6667 61.6328 68.1094C61.6328 68.5729 61.5391 68.9922 61.3516 69.3672C61.1641 69.7422 60.8958 70.0625 60.5469 70.3281C60.1979 70.5938 59.7786 70.7995 59.2891 70.9453C58.8047 71.0859 58.263 71.1562 57.6641 71.1562C57.138 71.1562 56.6198 71.0833 56.1094 70.9375C55.6042 70.7917 55.1432 70.5729 54.7266 70.2812C54.3151 69.9896 53.9844 69.6302 53.7344 69.2031C53.4896 68.7708 53.3672 68.2708 53.3672 67.7031H54.8672C54.8672 68.0938 54.9427 68.4297 55.0938 68.7109C55.2448 68.987 55.4505 69.2161 55.7109 69.3984C55.9766 69.5807 56.276 69.7161 56.6094 69.8047C56.9479 69.888 57.2995 69.9297 57.6641 69.9297C58.1901 69.9297 58.6354 69.8568 59 69.7109C59.3646 69.5651 59.6406 69.3568 59.8281 69.0859C60.0208 68.8151 60.1172 68.4948 60.1172 68.125ZM66.7188 69.9688C67.0625 69.9688 67.3802 69.8984 67.6719 69.7578C67.9635 69.6172 68.2031 69.4245 68.3906 69.1797C68.5781 68.9297 68.6849 68.6458 68.7109 68.3281H70.0859C70.0599 68.8281 69.8906 69.2943 69.5781 69.7266C69.2708 70.1536 68.8672 70.5 68.3672 70.7656C67.8672 71.026 67.3177 71.1562 66.7188 71.1562C66.0833 71.1562 65.5286 71.0443 65.0547 70.8203C64.5859 70.5964 64.1953 70.2891 63.8828 69.8984C63.5755 69.5078 63.3438 69.0599 63.1875 68.5547C63.0365 68.0443 62.9609 67.5052 62.9609 66.9375V66.6094C62.9609 66.0417 63.0365 65.5052 63.1875 65C63.3438 64.4896 63.5755 64.0391 63.8828 63.6484C64.1953 63.2578 64.5859 62.9505 65.0547 62.7266C65.5286 62.5026 66.0833 62.3906 66.7188 62.3906C67.3802 62.3906 67.9583 62.526 68.4531 62.7969C68.9479 63.0625 69.3359 63.4271 69.6172 63.8906C69.9036 64.349 70.0599 64.8698 70.0859 65.4531H68.7109C68.6849 65.1042 68.5859 64.7891 68.4141 64.5078C68.2474 64.2266 68.0182 64.0026 67.7266 63.8359C67.4401 63.6641 67.1042 63.5781 66.7188 63.5781C66.276 63.5781 65.9036 63.6667 65.6016 63.8438C65.3047 64.0156 65.0677 64.25 64.8906 64.5469C64.7188 64.8385 64.5938 65.1641 64.5156 65.5234C64.4427 65.8776 64.4062 66.2396 64.4062 66.6094V66.9375C64.4062 67.3073 64.4427 67.6719 64.5156 68.0312C64.5885 68.3906 64.7109 68.7161 64.8828 69.0078C65.0599 69.2995 65.2969 69.5339 65.5938 69.7109C65.8958 69.8828 66.2708 69.9688 66.7188 69.9688ZM73.1562 63.875V71H71.7109V62.5469H73.1172L73.1562 63.875ZM75.7969 62.5L75.7891 63.8438C75.6693 63.8177 75.5547 63.8021 75.4453 63.7969C75.3411 63.7865 75.2214 63.7812 75.0859 63.7812C74.7526 63.7812 74.4583 63.8333 74.2031 63.9375C73.9479 64.0417 73.7318 64.1875 73.5547 64.375C73.3776 64.5625 73.237 64.7865 73.1328 65.0469C73.0339 65.3021 72.9688 65.5833 72.9375 65.8906L72.5312 66.125C72.5312 65.6146 72.5807 65.1354 72.6797 64.6875C72.7839 64.2396 72.9427 63.8438 73.1562 63.5C73.3698 63.151 73.6406 62.8802 73.9688 62.6875C74.3021 62.4896 74.6979 62.3906 75.1562 62.3906C75.2604 62.3906 75.3802 62.4036 75.5156 62.4297C75.651 62.4505 75.7448 62.474 75.7969 62.5ZM78.7031 62.5469V71H77.25V62.5469H78.7031ZM77.1406 60.3047C77.1406 60.0703 77.2109 59.8724 77.3516 59.7109C77.4974 59.5495 77.7109 59.4688 77.9922 59.4688C78.2682 59.4688 78.4792 59.5495 78.625 59.7109C78.776 59.8724 78.8516 60.0703 78.8516 60.3047C78.8516 60.5286 78.776 60.7214 78.625 60.8828C78.4792 61.0391 78.2682 61.1172 77.9922 61.1172C77.7109 61.1172 77.4974 61.0391 77.3516 60.8828C77.2109 60.7214 77.1406 60.5286 77.1406 60.3047ZM82.4688 64.1719V74.25H81.0156V62.5469H82.3438L82.4688 64.1719ZM88.1641 66.7031V66.8672C88.1641 67.4818 88.0911 68.0521 87.9453 68.5781C87.7995 69.099 87.5859 69.5521 87.3047 69.9375C87.0286 70.3229 86.6875 70.6224 86.2812 70.8359C85.875 71.0495 85.4089 71.1562 84.8828 71.1562C84.3464 71.1562 83.8724 71.0677 83.4609 70.8906C83.0495 70.7135 82.7005 70.4557 82.4141 70.1172C82.1276 69.7786 81.8984 69.3724 81.7266 68.8984C81.5599 68.4245 81.4453 67.8906 81.3828 67.2969V66.4219C81.4453 65.7969 81.5625 65.237 81.7344 64.7422C81.9062 64.2474 82.1328 63.8255 82.4141 63.4766C82.7005 63.1224 83.0469 62.8542 83.4531 62.6719C83.8594 62.4844 84.3281 62.3906 84.8594 62.3906C85.3906 62.3906 85.862 62.4948 86.2734 62.7031C86.6849 62.9062 87.0312 63.1979 87.3125 63.5781C87.5938 63.9583 87.8047 64.4141 87.9453 64.9453C88.0911 65.4714 88.1641 66.0573 88.1641 66.7031ZM86.7109 66.8672V66.7031C86.7109 66.2812 86.6667 65.8854 86.5781 65.5156C86.4896 65.1406 86.3516 64.8125 86.1641 64.5312C85.9818 64.2448 85.7474 64.0208 85.4609 63.8594C85.1745 63.6927 84.8333 63.6094 84.4375 63.6094C84.0729 63.6094 83.7552 63.6719 83.4844 63.7969C83.2188 63.9219 82.9922 64.0911 82.8047 64.3047C82.6172 64.513 82.4635 64.7526 82.3438 65.0234C82.2292 65.2891 82.1432 65.5651 82.0859 65.8516V67.875C82.1901 68.2396 82.3359 68.5833 82.5234 68.9062C82.7109 69.224 82.9609 69.4818 83.2734 69.6797C83.5859 69.8724 83.9792 69.9688 84.4531 69.9688C84.8438 69.9688 85.1797 69.888 85.4609 69.7266C85.7474 69.5599 85.9818 69.3333 86.1641 69.0469C86.3516 68.7604 86.4896 68.4323 86.5781 68.0625C86.6667 67.6875 86.7109 67.2891 86.7109 66.8672ZM93.5469 62.5469V63.6562H88.9766V62.5469H93.5469ZM90.5234 60.4922H91.9688V68.9062C91.9688 69.1927 92.013 69.4089 92.1016 69.5547C92.1901 69.7005 92.3047 69.7969 92.4453 69.8438C92.5859 69.8906 92.737 69.9141 92.8984 69.9141C93.0182 69.9141 93.1432 69.9036 93.2734 69.8828C93.4089 69.8568 93.5104 69.8359 93.5781 69.8203L93.5859 71C93.4714 71.0365 93.3203 71.0703 93.1328 71.1016C92.9505 71.138 92.7292 71.1562 92.4688 71.1562C92.1146 71.1562 91.7891 71.0859 91.4922 70.9453C91.1953 70.8047 90.9583 70.5703 90.7812 70.2422C90.6094 69.9089 90.5234 69.4609 90.5234 68.8984V60.4922Z" fill="black"/>
<g clip-path="url(#clip1_0_604)">
<path fill-rule="evenodd" clip-rule="evenodd" d="M0.164062 59.1641H13.8359V72.8359H0.164062V59.1641Z" fill="#F7DF1E"/>
<path fill-rule="evenodd" clip-rule="evenodd" d="M3.75881 70.5893L4.80508 69.9561C5.00692 70.314 5.19054 70.6168 5.63097 70.6168C6.05315 70.6168 6.31931 70.4516 6.31931 69.8093V65.4408H7.60412V69.8274C7.60412 71.1582 6.82409 71.7639 5.68605 71.7639C4.65825 71.7639 4.06163 71.2316 3.75879 70.5892" fill="black"/>
<path fill-rule="evenodd" clip-rule="evenodd" d="M8.302 70.4516L9.34814 69.8459C9.62353 70.2956 9.98145 70.626 10.6147 70.626C11.147 70.626 11.4865 70.3598 11.4865 69.9927C11.4865 69.5522 11.1378 69.3962 10.5504 69.1393L10.2293 69.0015C9.30231 68.607 8.6874 68.1114 8.6874 67.0652C8.6874 66.1015 9.42158 65.3673 10.5688 65.3673C11.3856 65.3673 11.9729 65.6518 12.3951 66.3952L11.3947 67.0376C11.1744 66.643 10.9359 66.487 10.5688 66.487C10.1925 66.487 9.95391 66.7256 9.95391 67.0376C9.95391 67.4231 10.1925 67.5791 10.7431 67.8178L11.0643 67.9554C12.1564 68.4235 12.7713 68.9007 12.7713 69.9744C12.7713 71.1308 11.8628 71.764 10.6422 71.764C9.44916 71.764 8.67824 71.195 8.30202 70.4516" fill="black"/>
</g>
<defs>
<clipPath id="clip0_0_604">
<rect width="14" height="14" fill="white" transform="translate(0 2)"/>
</clipPath>
<clipPath id="clip1_0_604">
<rect width="14" height="14" fill="white" transform="translate(0 59)"/>
</clipPath>
</defs>
</svg>
