<svg width="81" height="46" viewBox="0 0 81 46" fill="none" xmlns="http://www.w3.org/2000/svg">
<path d="M29.0703 31.625V43H27.5547L21.8281 34.2266V43H20.3203V31.625H21.8281L27.5781 40.4219V31.625H29.0703ZM31.1406 38.8672V38.6875C31.1406 38.0781 31.2292 37.513 31.4062 36.9922C31.5833 36.4661 31.8385 36.0104 32.1719 35.625C32.5052 35.2344 32.9089 34.9323 33.3828 34.7188C33.8568 34.5 34.388 34.3906 34.9766 34.3906C35.5703 34.3906 36.1042 34.5 36.5781 34.7188C37.0573 34.9323 37.4635 35.2344 37.7969 35.625C38.1354 36.0104 38.3932 36.4661 38.5703 36.9922C38.7474 37.513 38.8359 38.0781 38.8359 38.6875V38.8672C38.8359 39.4766 38.7474 40.0417 38.5703 40.5625C38.3932 41.0833 38.1354 41.5391 37.7969 41.9297C37.4635 42.3151 37.0599 42.6172 36.5859 42.8359C36.1172 43.0495 35.5859 43.1562 34.9922 43.1562C34.3984 43.1562 33.8646 43.0495 33.3906 42.8359C32.9167 42.6172 32.5104 42.3151 32.1719 41.9297C31.8385 41.5391 31.5833 41.0833 31.4062 40.5625C31.2292 40.0417 31.1406 39.4766 31.1406 38.8672ZM32.5859 38.6875V38.8672C32.5859 39.2891 32.6354 39.6875 32.7344 40.0625C32.8333 40.4323 32.9818 40.7604 33.1797 41.0469C33.3828 41.3333 33.6354 41.5599 33.9375 41.7266C34.2396 41.888 34.5911 41.9688 34.9922 41.9688C35.388 41.9688 35.7344 41.888 36.0312 41.7266C36.3333 41.5599 36.5833 41.3333 36.7812 41.0469C36.9792 40.7604 37.1276 40.4323 37.2266 40.0625C37.3307 39.6875 37.3828 39.2891 37.3828 38.8672V38.6875C37.3828 38.2708 37.3307 37.8776 37.2266 37.5078C37.1276 37.1328 36.9766 36.8021 36.7734 36.5156C36.5755 36.224 36.3255 35.9948 36.0234 35.8281C35.7266 35.6615 35.3776 35.5781 34.9766 35.5781C34.5807 35.5781 34.2318 35.6615 33.9297 35.8281C33.6328 35.9948 33.3828 36.224 33.1797 36.5156C32.9818 36.8021 32.8333 37.1328 32.7344 37.5078C32.6354 37.8776 32.5859 38.2708 32.5859 38.6875ZM45.9766 41.3594V31H47.4297V43H46.1016L45.9766 41.3594ZM40.2891 38.8672V38.7031C40.2891 38.0573 40.3672 37.4714 40.5234 36.9453C40.6849 36.4141 40.9115 35.9583 41.2031 35.5781C41.5 35.1979 41.8516 34.9062 42.2578 34.7031C42.6693 34.4948 43.1276 34.3906 43.6328 34.3906C44.1641 34.3906 44.6276 34.4844 45.0234 34.6719C45.4245 34.8542 45.763 35.1224 46.0391 35.4766C46.3203 35.8255 46.5417 36.2474 46.7031 36.7422C46.8646 37.237 46.9766 37.7969 47.0391 38.4219V39.1406C46.9818 39.7604 46.8698 40.3177 46.7031 40.8125C46.5417 41.3073 46.3203 41.7292 46.0391 42.0781C45.763 42.4271 45.4245 42.6953 45.0234 42.8828C44.6224 43.0651 44.1536 43.1562 43.6172 43.1562C43.1224 43.1562 42.6693 43.0495 42.2578 42.8359C41.8516 42.6224 41.5 42.3229 41.2031 41.9375C40.9115 41.5521 40.6849 41.099 40.5234 40.5781C40.3672 40.0521 40.2891 39.4818 40.2891 38.8672ZM41.7422 38.7031V38.8672C41.7422 39.2891 41.7839 39.6849 41.8672 40.0547C41.9557 40.4245 42.0911 40.75 42.2734 41.0312C42.4557 41.3125 42.6875 41.5339 42.9688 41.6953C43.25 41.8516 43.5859 41.9297 43.9766 41.9297C44.4557 41.9297 44.849 41.8281 45.1562 41.625C45.4688 41.4219 45.7188 41.1536 45.9062 40.8203C46.0938 40.487 46.2396 40.125 46.3438 39.7344V37.8516C46.2812 37.5651 46.1901 37.2891 46.0703 37.0234C45.9557 36.7526 45.8047 36.513 45.6172 36.3047C45.4349 36.0911 45.2083 35.9219 44.9375 35.7969C44.6719 35.6719 44.3568 35.6094 43.9922 35.6094C43.5964 35.6094 43.2552 35.6927 42.9688 35.8594C42.6875 36.0208 42.4557 36.2448 42.2734 36.5312C42.0911 36.8125 41.9557 37.1406 41.8672 37.5156C41.7839 37.8854 41.7422 38.2812 41.7422 38.7031ZM53.1875 43.1562C52.599 43.1562 52.0651 43.0573 51.5859 42.8594C51.112 42.6562 50.7031 42.3724 50.3594 42.0078C50.0208 41.6432 49.7604 41.2109 49.5781 40.7109C49.3958 40.2109 49.3047 39.6641 49.3047 39.0703V38.7422C49.3047 38.0547 49.4062 37.4427 49.6094 36.9062C49.8125 36.3646 50.0885 35.9062 50.4375 35.5312C50.7865 35.1562 51.1823 34.8724 51.625 34.6797C52.0677 34.487 52.526 34.3906 53 34.3906C53.6042 34.3906 54.125 34.4948 54.5625 34.7031C55.0052 34.9115 55.3672 35.2031 55.6484 35.5781C55.9297 35.9479 56.138 36.3854 56.2734 36.8906C56.4089 37.3906 56.4766 37.9375 56.4766 38.5312V39.1797H50.1641V38H55.0312V37.8906C55.0104 37.5156 54.9323 37.151 54.7969 36.7969C54.6667 36.4427 54.4583 36.151 54.1719 35.9219C53.8854 35.6927 53.4948 35.5781 53 35.5781C52.6719 35.5781 52.3698 35.6484 52.0938 35.7891C51.8177 35.9245 51.5807 36.1276 51.3828 36.3984C51.1849 36.6693 51.0312 37 50.9219 37.3906C50.8125 37.7812 50.7578 38.2318 50.7578 38.7422V39.0703C50.7578 39.4714 50.8125 39.849 50.9219 40.2031C51.0365 40.5521 51.2005 40.8594 51.4141 41.125C51.6328 41.3906 51.8958 41.599 52.2031 41.75C52.5156 41.901 52.8698 41.9766 53.2656 41.9766C53.776 41.9766 54.2083 41.8724 54.5625 41.6641C54.9167 41.4557 55.2266 41.1771 55.4922 40.8281L56.3672 41.5234C56.1849 41.7995 55.9531 42.0625 55.6719 42.3125C55.3906 42.5625 55.0443 42.7656 54.6328 42.9219C54.2266 43.0781 53.7448 43.1562 53.1875 43.1562ZM63.1562 39.6797V31.625H64.6562V39.6797C64.6562 40.4297 64.5026 41.0625 64.1953 41.5781C63.888 42.0938 63.4635 42.487 62.9219 42.7578C62.3854 43.0234 61.7682 43.1562 61.0703 43.1562C60.3724 43.1562 59.7526 43.0365 59.2109 42.7969C58.6693 42.5573 58.2448 42.1927 57.9375 41.7031C57.6302 41.2135 57.4766 40.5964 57.4766 39.8516H58.9844C58.9844 40.3307 59.0729 40.724 59.25 41.0312C59.4271 41.3385 59.6719 41.5651 59.9844 41.7109C60.3021 41.8568 60.6641 41.9297 61.0703 41.9297C61.4661 41.9297 61.8203 41.8464 62.1328 41.6797C62.4505 41.5078 62.7005 41.2552 62.8828 40.9219C63.0651 40.5833 63.1562 40.1693 63.1562 39.6797ZM73.2734 40.125C73.2734 39.8594 73.2318 39.625 73.1484 39.4219C73.0703 39.2135 72.9297 39.026 72.7266 38.8594C72.5286 38.6927 72.2526 38.5339 71.8984 38.3828C71.5495 38.2318 71.1068 38.0781 70.5703 37.9219C70.0078 37.7552 69.5 37.5703 69.0469 37.3672C68.5938 37.1589 68.2057 36.9219 67.8828 36.6562C67.5599 36.3906 67.3125 36.0859 67.1406 35.7422C66.9688 35.3984 66.8828 35.0052 66.8828 34.5625C66.8828 34.1198 66.974 33.7109 67.1562 33.3359C67.3385 32.9609 67.599 32.6354 67.9375 32.3594C68.2812 32.0781 68.6901 31.8594 69.1641 31.7031C69.638 31.5469 70.1667 31.4688 70.75 31.4688C71.6042 31.4688 72.3281 31.6328 72.9219 31.9609C73.5208 32.2839 73.9766 32.7083 74.2891 33.2344C74.6016 33.7552 74.7578 34.3125 74.7578 34.9062H73.2578C73.2578 34.4792 73.1667 34.1016 72.9844 33.7734C72.8021 33.4401 72.526 33.1797 72.1562 32.9922C71.7865 32.7995 71.3177 32.7031 70.75 32.7031C70.2135 32.7031 69.7708 32.7839 69.4219 32.9453C69.0729 33.1068 68.8125 33.3255 68.6406 33.6016C68.474 33.8776 68.3906 34.1927 68.3906 34.5469C68.3906 34.7865 68.4401 35.0052 68.5391 35.2031C68.6432 35.3958 68.8021 35.5755 69.0156 35.7422C69.2344 35.9089 69.5104 36.0625 69.8438 36.2031C70.1823 36.3438 70.5859 36.4792 71.0547 36.6094C71.7005 36.7917 72.2578 36.9948 72.7266 37.2188C73.1953 37.4427 73.5807 37.6953 73.8828 37.9766C74.1901 38.2526 74.4167 38.5677 74.5625 38.9219C74.7135 39.2708 74.7891 39.6667 74.7891 40.1094C74.7891 40.5729 74.6953 40.9922 74.5078 41.3672C74.3203 41.7422 74.0521 42.0625 73.7031 42.3281C73.3542 42.5938 72.9349 42.7995 72.4453 42.9453C71.9609 43.0859 71.4193 43.1562 70.8203 43.1562C70.2943 43.1562 69.776 43.0833 69.2656 42.9375C68.7604 42.7917 68.2995 42.5729 67.8828 42.2812C67.4714 41.9896 67.1406 41.6302 66.8906 41.2031C66.6458 40.7708 66.5234 40.2708 66.5234 39.7031H68.0234C68.0234 40.0938 68.099 40.4297 68.25 40.7109C68.401 40.987 68.6068 41.2161 68.8672 41.3984C69.1328 41.5807 69.4323 41.7161 69.7656 41.8047C70.1042 41.888 70.4557 41.9297 70.8203 41.9297C71.3464 41.9297 71.7917 41.8568 72.1562 41.7109C72.5208 41.5651 72.7969 41.3568 72.9844 41.0859C73.1771 40.8151 73.2734 40.4948 73.2734 40.125Z" fill="black"/>
<g clip-path="url(#clip0_0_632)">
<path fill-rule="evenodd" clip-rule="evenodd" d="M7.01239 44.8106C6.82434 44.8106 6.64882 44.7604 6.48584 44.6727L4.81842 43.6822C4.56768 43.5443 4.69305 43.4942 4.76827 43.4691C5.10677 43.3563 5.16946 43.3312 5.52049 43.1306C5.5581 43.1055 5.60825 43.1181 5.64586 43.1432L6.92464 43.9079C6.97478 43.933 7.03747 43.933 7.07508 43.9079L12.0773 41.0119C12.1275 40.9868 12.1526 40.9366 12.1526 40.874V35.0944C12.1526 35.0317 12.1275 34.9816 12.0773 34.9565L7.07508 32.073C7.02493 32.0479 6.96225 32.0479 6.92464 32.073L1.92238 34.9565C1.87223 34.9816 1.84716 35.0443 1.84716 35.0944V40.874C1.84716 40.9241 1.87223 40.9868 1.92238 41.0119L3.28891 41.8017C4.02859 42.1778 4.49246 41.739 4.49246 41.3002V35.5959C4.49246 35.5207 4.55515 35.4454 4.6429 35.4454H5.28229C5.35751 35.4454 5.43273 35.5081 5.43273 35.5959V41.3002C5.43273 42.2906 4.89364 42.8673 3.95337 42.8673C3.66502 42.8673 3.43935 42.8673 2.79997 42.5539L1.48358 41.8017C1.15762 41.6136 0.957031 41.2626 0.957031 40.8865V35.1069C0.957031 34.7308 1.15762 34.3798 1.48358 34.1917L6.48584 31.2957C6.79927 31.1202 7.22552 31.1202 7.53895 31.2957L12.5412 34.1917C12.8672 34.3798 13.0678 34.7308 13.0678 35.1069V40.8865C13.0678 41.2626 12.8672 41.6136 12.5412 41.8017L7.53895 44.6977C7.37597 44.773 7.18791 44.8106 7.01239 44.8106ZM8.55444 40.8363C6.36047 40.8363 5.90914 39.8334 5.90914 38.9809C5.90914 38.9057 5.97183 38.8304 6.05958 38.8304H6.71151C6.78673 38.8304 6.84941 38.8806 6.84941 38.9558C6.94971 39.6203 7.23806 39.9462 8.56698 39.9462C9.62009 39.9462 10.0714 39.708 10.0714 39.1439C10.0714 38.8179 9.94605 38.5797 8.3037 38.4167C6.93717 38.2788 6.08466 37.9779 6.08466 36.8872C6.08466 35.8717 6.93717 35.2699 8.36639 35.2699C9.97112 35.2699 10.761 35.8216 10.8612 37.0251C10.8612 37.0627 10.8487 37.1003 10.8236 37.1379C10.7986 37.163 10.761 37.1881 10.7233 37.1881H10.0714C10.0087 37.1881 9.94605 37.1379 9.93351 37.0753C9.78307 36.3857 9.39442 36.1601 8.36639 36.1601C7.21299 36.1601 7.07508 36.5612 7.07508 36.8621C7.07508 37.2257 7.23806 37.3385 8.79265 37.5391C10.3347 37.7397 11.0618 38.0281 11.0618 39.1062C11.0493 40.2095 10.1466 40.8363 8.55444 40.8363Z" fill="#539E43"/>
</g>
<path d="M20.3203 3.625H24.0859C24.9401 3.625 25.6615 3.75521 26.25 4.01562C26.8438 4.27604 27.2943 4.66146 27.6016 5.17188C27.9141 5.67708 28.0703 6.29948 28.0703 7.03906C28.0703 7.5599 27.9635 8.03646 27.75 8.46875C27.5417 8.89583 27.2396 9.26042 26.8438 9.5625C26.4531 9.85938 25.9844 10.0807 25.4375 10.2266L25.0156 10.3906H21.4766L21.4609 9.16406H24.1328C24.6745 9.16406 25.125 9.07031 25.4844 8.88281C25.8438 8.6901 26.1146 8.43229 26.2969 8.10938C26.4792 7.78646 26.5703 7.42969 26.5703 7.03906C26.5703 6.60156 26.4844 6.21875 26.3125 5.89062C26.1406 5.5625 25.8698 5.3099 25.5 5.13281C25.1354 4.95052 24.6641 4.85938 24.0859 4.85938H21.8281V15H20.3203V3.625ZM26.9688 15L24.2031 9.84375L25.7734 9.83594L28.5781 14.9062V15H26.9688ZM33.4688 15.1562C32.8802 15.1562 32.3464 15.0573 31.8672 14.8594C31.3932 14.6562 30.9844 14.3724 30.6406 14.0078C30.3021 13.6432 30.0417 13.2109 29.8594 12.7109C29.6771 12.2109 29.5859 11.6641 29.5859 11.0703V10.7422C29.5859 10.0547 29.6875 9.44271 29.8906 8.90625C30.0938 8.36458 30.3698 7.90625 30.7188 7.53125C31.0677 7.15625 31.4635 6.8724 31.9062 6.67969C32.349 6.48698 32.8073 6.39062 33.2812 6.39062C33.8854 6.39062 34.4062 6.49479 34.8438 6.70312C35.2865 6.91146 35.6484 7.20312 35.9297 7.57812C36.2109 7.94792 36.4193 8.38542 36.5547 8.89062C36.6901 9.39062 36.7578 9.9375 36.7578 10.5312V11.1797H30.4453V10H35.3125V9.89062C35.2917 9.51562 35.2135 9.15104 35.0781 8.79688C34.9479 8.44271 34.7396 8.15104 34.4531 7.92188C34.1667 7.69271 33.776 7.57812 33.2812 7.57812C32.9531 7.57812 32.651 7.64844 32.375 7.78906C32.099 7.92448 31.862 8.1276 31.6641 8.39844C31.4661 8.66927 31.3125 9 31.2031 9.39062C31.0938 9.78125 31.0391 10.2318 31.0391 10.7422V11.0703C31.0391 11.4714 31.0938 11.849 31.2031 12.2031C31.3177 12.5521 31.4818 12.8594 31.6953 13.125C31.9141 13.3906 32.1771 13.599 32.4844 13.75C32.7969 13.901 33.151 13.9766 33.5469 13.9766C34.0573 13.9766 34.4896 13.8724 34.8438 13.6641C35.1979 13.4557 35.5078 13.1771 35.7734 12.8281L36.6484 13.5234C36.4661 13.7995 36.2344 14.0625 35.9531 14.3125C35.6719 14.5625 35.3255 14.7656 34.9141 14.9219C34.5078 15.0781 34.026 15.1562 33.4688 15.1562ZM43.4297 13.5547V9.20312C43.4297 8.86979 43.362 8.58073 43.2266 8.33594C43.0964 8.08594 42.8984 7.89323 42.6328 7.75781C42.3672 7.6224 42.0391 7.55469 41.6484 7.55469C41.2839 7.55469 40.9635 7.61719 40.6875 7.74219C40.4167 7.86719 40.2031 8.03125 40.0469 8.23438C39.8958 8.4375 39.8203 8.65625 39.8203 8.89062H38.375C38.375 8.58854 38.4531 8.28906 38.6094 7.99219C38.7656 7.69531 38.9896 7.42708 39.2812 7.1875C39.5781 6.94271 39.9323 6.75 40.3438 6.60938C40.7604 6.46354 41.224 6.39062 41.7344 6.39062C42.349 6.39062 42.8906 6.49479 43.3594 6.70312C43.8333 6.91146 44.2031 7.22656 44.4688 7.64844C44.7396 8.0651 44.875 8.58854 44.875 9.21875V13.1562C44.875 13.4375 44.8984 13.737 44.9453 14.0547C44.9974 14.3724 45.0729 14.6458 45.1719 14.875V15H43.6641C43.5911 14.8333 43.5339 14.612 43.4922 14.3359C43.4505 14.0547 43.4297 13.7943 43.4297 13.5547ZM43.6797 9.875L43.6953 10.8906H42.2344C41.8229 10.8906 41.4557 10.9245 41.1328 10.9922C40.8099 11.0547 40.5391 11.151 40.3203 11.2812C40.1016 11.4115 39.9349 11.5755 39.8203 11.7734C39.7057 11.9661 39.6484 12.1927 39.6484 12.4531C39.6484 12.7188 39.7083 12.9609 39.8281 13.1797C39.9479 13.3984 40.1276 13.5729 40.3672 13.7031C40.612 13.8281 40.9115 13.8906 41.2656 13.8906C41.7083 13.8906 42.099 13.7969 42.4375 13.6094C42.776 13.4219 43.0443 13.1927 43.2422 12.9219C43.4453 12.651 43.5547 12.388 43.5703 12.1328L44.1875 12.8281C44.151 13.0469 44.0521 13.2891 43.8906 13.5547C43.7292 13.8203 43.513 14.0755 43.2422 14.3203C42.9766 14.5599 42.6589 14.7604 42.2891 14.9219C41.9245 15.0781 41.513 15.1562 41.0547 15.1562C40.4818 15.1562 39.9792 15.0443 39.5469 14.8203C39.1198 14.5964 38.7865 14.2969 38.5469 13.9219C38.3125 13.5417 38.1953 13.1172 38.1953 12.6484C38.1953 12.1953 38.2839 11.7969 38.4609 11.4531C38.638 11.1042 38.8932 10.8151 39.2266 10.5859C39.5599 10.3516 39.9609 10.1745 40.4297 10.0547C40.8984 9.9349 41.4219 9.875 42 9.875H43.6797ZM50.5312 13.9688C50.875 13.9688 51.1927 13.8984 51.4844 13.7578C51.776 13.6172 52.0156 13.4245 52.2031 13.1797C52.3906 12.9297 52.4974 12.6458 52.5234 12.3281H53.8984C53.8724 12.8281 53.7031 13.2943 53.3906 13.7266C53.0833 14.1536 52.6797 14.5 52.1797 14.7656C51.6797 15.026 51.1302 15.1562 50.5312 15.1562C49.8958 15.1562 49.3411 15.0443 48.8672 14.8203C48.3984 14.5964 48.0078 14.2891 47.6953 13.8984C47.388 13.5078 47.1562 13.0599 47 12.5547C46.849 12.0443 46.7734 11.5052 46.7734 10.9375V10.6094C46.7734 10.0417 46.849 9.50521 47 9C47.1562 8.48958 47.388 8.03906 47.6953 7.64844C48.0078 7.25781 48.3984 6.95052 48.8672 6.72656C49.3411 6.5026 49.8958 6.39062 50.5312 6.39062C51.1927 6.39062 51.7708 6.52604 52.2656 6.79688C52.7604 7.0625 53.1484 7.42708 53.4297 7.89062C53.7161 8.34896 53.8724 8.86979 53.8984 9.45312H52.5234C52.4974 9.10417 52.3984 8.78906 52.2266 8.50781C52.0599 8.22656 51.8307 8.0026 51.5391 7.83594C51.2526 7.66406 50.9167 7.57812 50.5312 7.57812C50.0885 7.57812 49.7161 7.66667 49.4141 7.84375C49.1172 8.01562 48.8802 8.25 48.7031 8.54688C48.5312 8.83854 48.4062 9.16406 48.3281 9.52344C48.2552 9.8776 48.2188 10.2396 48.2188 10.6094V10.9375C48.2188 11.3073 48.2552 11.6719 48.3281 12.0312C48.401 12.3906 48.5234 12.7161 48.6953 13.0078C48.8724 13.2995 49.1094 13.5339 49.4062 13.7109C49.7083 13.8828 50.0833 13.9688 50.5312 13.9688ZM59.0625 6.54688V7.65625H54.4922V6.54688H59.0625ZM56.0391 4.49219H57.4844V12.9062C57.4844 13.1927 57.5286 13.4089 57.6172 13.5547C57.7057 13.7005 57.8203 13.7969 57.9609 13.8438C58.1016 13.8906 58.2526 13.9141 58.4141 13.9141C58.5339 13.9141 58.6589 13.9036 58.7891 13.8828C58.9245 13.8568 59.026 13.8359 59.0938 13.8203L59.1016 15C58.987 15.0365 58.8359 15.0703 58.6484 15.1016C58.4661 15.138 58.2448 15.1562 57.9844 15.1562C57.6302 15.1562 57.3047 15.0859 57.0078 14.9453C56.7109 14.8047 56.474 14.5703 56.2969 14.2422C56.125 13.9089 56.0391 13.4609 56.0391 12.8984V4.49219ZM65.75 11.6797V3.625H67.25V11.6797C67.25 12.4297 67.0964 13.0625 66.7891 13.5781C66.4818 14.0938 66.0573 14.487 65.5156 14.7578C64.9792 15.0234 64.362 15.1562 63.6641 15.1562C62.9661 15.1562 62.3464 15.0365 61.8047 14.7969C61.263 14.5573 60.8385 14.1927 60.5312 13.7031C60.224 13.2135 60.0703 12.5964 60.0703 11.8516H61.5781C61.5781 12.3307 61.6667 12.724 61.8438 13.0312C62.0208 13.3385 62.2656 13.5651 62.5781 13.7109C62.8958 13.8568 63.2578 13.9297 63.6641 13.9297C64.0599 13.9297 64.4141 13.8464 64.7266 13.6797C65.0443 13.5078 65.2943 13.2552 65.4766 12.9219C65.6589 12.5833 65.75 12.1693 65.75 11.6797ZM75.8672 12.125C75.8672 11.8594 75.8255 11.625 75.7422 11.4219C75.6641 11.2135 75.5234 11.026 75.3203 10.8594C75.1224 10.6927 74.8464 10.5339 74.4922 10.3828C74.1432 10.2318 73.7005 10.0781 73.1641 9.92188C72.6016 9.75521 72.0938 9.57031 71.6406 9.36719C71.1875 9.15885 70.7995 8.92188 70.4766 8.65625C70.1536 8.39062 69.9062 8.08594 69.7344 7.74219C69.5625 7.39844 69.4766 7.00521 69.4766 6.5625C69.4766 6.11979 69.5677 5.71094 69.75 5.33594C69.9323 4.96094 70.1927 4.63542 70.5312 4.35938C70.875 4.07812 71.2839 3.85938 71.7578 3.70312C72.2318 3.54688 72.7604 3.46875 73.3438 3.46875C74.1979 3.46875 74.9219 3.63281 75.5156 3.96094C76.1146 4.28385 76.5703 4.70833 76.8828 5.23438C77.1953 5.75521 77.3516 6.3125 77.3516 6.90625H75.8516C75.8516 6.47917 75.7604 6.10156 75.5781 5.77344C75.3958 5.4401 75.1198 5.17969 74.75 4.99219C74.3802 4.79948 73.9115 4.70312 73.3438 4.70312C72.8073 4.70312 72.3646 4.78385 72.0156 4.94531C71.6667 5.10677 71.4062 5.32552 71.2344 5.60156C71.0677 5.8776 70.9844 6.19271 70.9844 6.54688C70.9844 6.78646 71.0339 7.00521 71.1328 7.20312C71.237 7.39583 71.3958 7.57552 71.6094 7.74219C71.8281 7.90885 72.1042 8.0625 72.4375 8.20312C72.776 8.34375 73.1797 8.47917 73.6484 8.60938C74.2943 8.79167 74.8516 8.99479 75.3203 9.21875C75.7891 9.44271 76.1745 9.69531 76.4766 9.97656C76.7839 10.2526 77.0104 10.5677 77.1562 10.9219C77.3073 11.2708 77.3828 11.6667 77.3828 12.1094C77.3828 12.5729 77.2891 12.9922 77.1016 13.3672C76.9141 13.7422 76.6458 14.0625 76.2969 14.3281C75.9479 14.5938 75.5286 14.7995 75.0391 14.9453C74.5547 15.0859 74.013 15.1562 73.4141 15.1562C72.888 15.1562 72.3698 15.0833 71.8594 14.9375C71.3542 14.7917 70.8932 14.5729 70.4766 14.2812C70.0651 13.9896 69.7344 13.6302 69.4844 13.2031C69.2396 12.7708 69.1172 12.2708 69.1172 11.7031H70.6172C70.6172 12.0938 70.6927 12.4297 70.8438 12.7109C70.9948 12.987 71.2005 13.2161 71.4609 13.3984C71.7266 13.5807 72.026 13.7161 72.3594 13.8047C72.6979 13.888 73.0495 13.9297 73.4141 13.9297C73.9401 13.9297 74.3854 13.8568 74.75 13.7109C75.1146 13.5651 75.3906 13.3568 75.5781 13.0859C75.7708 12.8151 75.8672 12.4948 75.8672 12.125Z" fill="black"/>
<g clip-path="url(#clip1_0_632)">
<path d="M11.5108 6.80286C11.3656 6.75287 11.2151 6.70557 11.0601 6.66084C11.0856 6.5569 11.109 6.4543 11.1298 6.35345C11.4709 4.69745 11.2479 3.36337 10.4862 2.92414C9.75583 2.50297 8.5614 2.9421 7.35508 3.99193C7.23908 4.09288 7.12276 4.19976 7.00648 4.31177C6.929 4.23766 6.85165 4.16604 6.7745 4.09754C5.51024 2.975 4.24302 2.50194 3.4821 2.94245C2.75244 3.36484 2.53636 4.61901 2.84345 6.18841C2.8731 6.33999 2.90777 6.4948 2.94697 6.65219C2.76762 6.7031 2.59448 6.75738 2.42881 6.81512C0.946604 7.33188 0 8.14177 0 8.98184C0 9.84948 1.01618 10.7197 2.56001 11.2474C2.68185 11.289 2.80826 11.3284 2.93854 11.3658C2.89626 11.536 2.85947 11.7028 2.8286 11.8655C2.53579 13.4077 2.76445 14.6322 3.49216 15.052C4.24382 15.4854 5.50531 15.0399 6.73368 13.9661C6.83077 13.8813 6.92821 13.7912 7.02582 13.6969C7.15233 13.8187 7.27865 13.934 7.4043 14.0422C8.59412 15.0661 9.76926 15.4795 10.4963 15.0586C11.2472 14.6239 11.4912 13.3085 11.1744 11.708C11.1502 11.5858 11.1221 11.4609 11.0904 11.3338C11.179 11.3076 11.266 11.2806 11.3508 11.2525C12.9558 10.7207 14 9.86106 14 8.98184C14 8.13873 13.0229 7.32338 11.5108 6.80286ZM11.1627 10.6848C11.0862 10.7101 11.0076 10.7346 10.9276 10.7584C10.7504 10.1975 10.5113 9.601 10.2186 8.98476C10.4979 8.38319 10.7278 7.79436 10.9 7.23708C11.0432 7.27852 11.1822 7.32223 11.3161 7.36836C12.6117 7.81435 13.4019 8.47375 13.4019 8.98184C13.4019 9.52305 12.5485 10.2256 11.1627 10.6848ZM10.5877 11.8242C10.7278 12.5319 10.7478 13.1717 10.655 13.6719C10.5716 14.1214 10.4039 14.421 10.1966 14.541C9.75541 14.7964 8.81189 14.4645 7.79434 13.5888C7.67769 13.4884 7.5602 13.3813 7.44233 13.2678C7.83681 12.8364 8.23106 12.3348 8.61585 11.7778C9.29265 11.7177 9.93207 11.6196 10.5119 11.4855C10.5405 11.6007 10.5659 11.7137 10.5877 11.8242ZM4.77292 14.4969C4.34185 14.6491 3.99853 14.6535 3.791 14.5338C3.3494 14.2791 3.16581 13.2959 3.41623 11.9771C3.44491 11.826 3.47905 11.6709 3.5184 11.5123C4.09191 11.6391 4.72664 11.7304 5.40506 11.7854C5.79244 12.3304 6.19808 12.8315 6.60686 13.2701C6.51755 13.3564 6.42859 13.4385 6.34012 13.5158C5.79695 13.9906 5.25262 14.3275 4.77292 14.4969ZM2.75344 10.6815C2.07079 10.4482 1.50703 10.1449 1.12059 9.81399C0.773361 9.51662 0.598051 9.2214 0.598051 8.98184C0.598051 8.47206 1.35808 7.82183 2.62568 7.37987C2.77948 7.32625 2.94049 7.27571 3.10758 7.22824C3.28276 7.7981 3.51257 8.39391 3.7899 8.9964C3.50898 9.60783 3.27591 10.2131 3.099 10.7897C2.97989 10.7554 2.86448 10.7194 2.75344 10.6815ZM3.43039 6.07355C3.16728 4.72893 3.34202 3.71459 3.78173 3.46006C4.2501 3.18891 5.28579 3.57552 6.37738 4.54477C6.44715 4.60672 6.5172 4.67156 6.58745 4.73865C6.18069 5.17542 5.77875 5.67267 5.39481 6.21452C4.73638 6.27555 4.10611 6.37359 3.52663 6.50486C3.49019 6.35831 3.45792 6.21432 3.43039 6.07355ZM9.46935 7.56473C9.33082 7.32545 9.18861 7.09183 9.04362 6.86458C9.49031 6.92105 9.91828 6.99601 10.3202 7.08774C10.1995 7.47444 10.0491 7.87877 9.87211 8.29326C9.74512 8.05216 9.6108 7.80907 9.46935 7.56473ZM7.00668 5.16607C7.28254 5.46494 7.5588 5.79861 7.83053 6.16065C7.55671 6.14771 7.2795 6.14099 7 6.14099C6.72314 6.14099 6.44798 6.14756 6.17585 6.16027C6.44785 5.8016 6.7265 5.46837 7.00668 5.16607ZM4.52823 7.56887C4.38985 7.80882 4.25802 8.05059 4.13303 8.29281C3.95886 7.87977 3.80987 7.4736 3.68816 7.08141C4.0876 6.99202 4.51355 6.91893 4.9574 6.86353C4.81037 7.09287 4.66698 7.32821 4.52823 7.56882V7.56887ZM4.97018 11.1428C4.51161 11.0917 4.07925 11.0223 3.67991 10.9354C3.80356 10.5362 3.95585 10.1214 4.1337 9.69943C4.25902 9.94148 4.39137 10.1834 4.5306 10.4238H4.53062C4.67244 10.6688 4.81937 10.9088 4.97018 11.1428ZM7.02323 12.8398C6.73976 12.5339 6.45702 12.1956 6.18089 11.8317C6.44895 11.8422 6.72224 11.8476 7 11.8476C7.28536 11.8476 7.56745 11.8412 7.84511 11.8288C7.57248 12.1993 7.29722 12.5381 7.02323 12.8398ZM9.87781 9.67793C10.0649 10.1044 10.2227 10.5171 10.3479 10.9095C9.94201 11.0021 9.50374 11.0767 9.04198 11.1321C9.18731 10.9018 9.33078 10.6642 9.47175 10.4197C9.61436 10.1724 9.74978 9.92473 9.87781 9.67793ZM8.95369 10.1209C8.73484 10.5004 8.51017 10.8626 8.28207 11.2045C7.86664 11.2342 7.43744 11.2495 7 11.2495C6.56433 11.2495 6.14054 11.236 5.73245 11.2095C5.49517 10.8631 5.26561 10.4998 5.04816 10.1242H5.04821C4.83133 9.7496 4.63172 9.37184 4.45085 8.9962C4.63167 8.61968 4.83076 8.2415 5.04639 7.86758L5.04634 7.86765C5.26254 7.49274 5.49008 7.1312 5.72518 6.78696C6.14154 6.75548 6.56849 6.73906 6.99998 6.73906H7C7.43343 6.73906 7.86093 6.75561 8.27717 6.78735C8.50867 7.12908 8.73467 7.48945 8.95172 7.86441C9.17124 8.24359 9.37289 8.61926 9.55525 8.9877C9.37344 9.36247 9.17223 9.74192 8.95369 10.1209ZM10.1874 3.44227C10.6563 3.71262 10.8386 4.80297 10.544 6.23274C10.5252 6.32397 10.5041 6.4169 10.4811 6.51107C9.90027 6.37705 9.26955 6.27732 8.6092 6.21537C8.22451 5.66756 7.82587 5.16954 7.42573 4.73837C7.53331 4.63488 7.64074 4.5362 7.74772 4.44307C8.78129 3.54359 9.74731 3.18846 10.1874 3.44227ZM7 7.73169C7.69043 7.73169 8.25015 8.29139 8.25015 8.98184C8.25015 9.67227 7.69043 10.232 7 10.232C6.30957 10.232 5.74985 9.67227 5.74985 8.98184C5.74985 8.29139 6.30957 7.73169 7 7.73169Z" fill="#00D8FF"/>
</g>
<defs>
<clipPath id="clip0_0_632">
<rect width="14" height="14" fill="white" transform="translate(0 31)"/>
</clipPath>
<clipPath id="clip1_0_632">
<rect width="14" height="14" fill="white" transform="translate(0 2)"/>
</clipPath>
</defs>
</svg>
